<svg width="120" height="100" viewBox="0 0 120 100" fill="none" xmlns="http://www.w3.org/2000/svg">
<path opacity="0.35" d="M78.781 95.504C77.692 95.504 76.581 95.271 75.568 94.829L69.297 92.14L57.743 93.583C57.338 93.634 56.92 93.66 56.504 93.66C55.429 93.66 54.367 93.489 53.347 93.153L48.802 91.637C48.368 91.491 47.953 91.303 47.562 91.072L44.895 89.747L44.802 89.696C44.552 89.558 44.265 89.396 43.943 89.179C43.771 89.07 43.602 88.953 43.44 88.827C43.072 88.553 42.712 88.241 42.371 87.899L35.925 81.486L29.848 77.168C28.496 76.217 27.491 74.791 27.029 73.158C26.492 71.334 26.714 69.305 27.642 67.578C27.736 67.404 27.83 67.246 27.93 67.093L32.652 59.804C33.077 59.094 33.604 58.46 34.224 57.914C34.372 57.773 34.53 57.638 34.693 57.511C35.008 57.264 35.339 57.046 35.689 56.853C35.594 56.396 35.547 55.926 35.552 55.452V42.405C35.552 40.597 36.043 38.818 36.972 37.261L41.635 29.49L43.284 26.19C43.602 25.556 44.013 24.987 44.51 24.493L47.509 21.493C49.075 19.93 51.149 19.073 53.352 19.073H56.863L63.981 11.354C65.654 9.54 68.032 8.5 70.504 8.5C72.544 8.5 74.537 9.21 76.115 10.5L87.813 20C88.876 20.883 89.651 21.901 90.159 23.062C90.623 24.093 90.868 25.252 90.868 26.42C90.868 26.596 90.861 26.773 90.847 26.948L91.924 27.517L98.736 26.286C99.212 26.176 99.699 26.12 100.189 26.12H103.711C104.609 26.12 105.482 26.302 106.307 26.661L112.189 29.226L112.311 29.272L112.476 29.354C114.725 30.398 116.368 32.365 116.993 34.77C117.628 37.217 117.123 39.78 115.607 41.803L114.504 43.186L109.165 52.533L111.353 58C111.649 58.741 111.856 59.517 111.969 60.306L113.594 71.673C113.827 73.376 113.55 75.053 112.795 76.553L111.649 78.844C110.56 81.008 108.602 82.577 106.271 83.163L94.197 86.181L83.687 93.898C82.526 94.728 81.296 95.223 79.982 95.408C79.589 95.472 79.186 95.504 78.781 95.504Z" fill="black"/>
<path d="M76.781 93.504C75.692 93.504 74.581 93.271 73.568 92.829L67.297 90.14L55.743 91.583C55.338 91.634 54.92 91.66 54.504 91.66C53.429 91.66 52.367 91.489 51.347 91.153L46.802 89.637C46.368 89.491 45.953 89.303 45.562 89.072L42.895 87.747L42.802 87.696C42.552 87.558 42.265 87.396 41.943 87.179C41.771 87.07 41.602 86.953 41.44 86.827C41.072 86.553 40.712 86.241 40.371 85.899L33.925 79.486L27.848 75.168C26.496 74.217 25.491 72.791 25.029 71.158C24.492 69.334 24.714 67.305 25.642 65.578C25.736 65.404 25.83 65.246 25.93 65.093L30.652 57.804C31.077 57.094 31.604 56.46 32.224 55.914C32.372 55.773 32.53 55.638 32.693 55.511C33.008 55.264 33.339 55.046 33.689 54.853C33.594 54.396 33.547 53.926 33.552 53.452V40.405C33.552 38.597 34.043 36.818 34.972 35.261L39.635 27.49L41.284 24.19C41.602 23.556 42.013 22.987 42.51 22.493L45.509 19.493C47.075 17.93 49.149 17.073 51.352 17.073H54.863L61.981 9.354C63.654 7.54 66.032 6.5 68.504 6.5C70.544 6.5 72.537 7.21 74.115 8.5L85.813 18C86.876 18.883 87.651 19.901 88.159 21.062C88.623 22.093 88.868 23.252 88.868 24.42C88.868 24.596 88.861 24.773 88.847 24.948L89.924 25.517L96.736 24.286C97.212 24.176 97.699 24.12 98.189 24.12H101.711C102.609 24.12 103.482 24.302 104.307 24.661L110.189 27.226L110.311 27.272L110.476 27.354C112.725 28.398 114.368 30.365 114.993 32.77C115.628 35.217 115.123 37.78 113.607 39.803L112.504 41.186L107.165 50.533L109.353 56C109.649 56.741 109.856 57.517 109.969 58.306L111.594 69.673C111.827 71.376 111.55 73.053 110.795 74.553L109.649 76.844C108.56 79.008 106.602 80.577 104.271 81.163L92.197 84.181L81.687 91.898C80.526 92.728 79.296 93.223 77.982 93.408C77.589 93.472 77.186 93.504 76.781 93.504Z" fill="#F2F2F2"/>
<path d="M107.7 35.677L107.066 37.58C107.048 37.633 107.013 37.703 106.978 37.756L100.125 49.753C100.037 49.912 99.984 50.088 100.002 50.281L101.27 69.835C101.288 70.152 101.129 70.469 100.865 70.663L89.784 77.939C89.555 78.098 89.255 78.133 88.991 78.045L82.843 75.949C82.544 75.843 82.226 75.914 81.98 76.108L75.55 81.199C75.391 81.322 75.215 81.375 75.039 81.393L49.143 83.454C49.073 83.454 49.02 83.454 48.949 83.436C48.879 83.436 48.79 83.418 48.72 83.383L46.06 82.062C45.831 81.956 45.62 81.833 45.426 81.674C45.408 81.692 45.408 81.674 45.408 81.674C45.214 81.533 45.038 81.375 44.862 81.198L38.502 74.838C38.308 74.679 38.132 74.521 37.956 74.38L31.614 69.87C31.438 69.747 31.332 69.571 31.279 69.377C31.209 69.148 31.244 68.884 31.367 68.655L36.194 61.203C36.317 60.974 36.493 60.78 36.722 60.639C36.881 60.516 37.074 60.445 37.268 60.392L48.86 57.926C49.477 57.767 48.332 56.693 47.979 56.164L40.245 53.751C40.139 53.61 40.086 53.416 40.086 53.24V40.398C40.086 39.764 40.262 39.147 40.597 38.583L45.353 30.656C45.371 30.638 45.371 30.603 45.388 30.586L47.062 27.239C47.115 27.151 47.168 27.063 47.238 26.992L49.88 24.35C50.373 23.857 51.06 23.575 51.765 23.575H57.297C57.561 23.575 57.808 23.469 57.984 23.276L66.757 13.763C67.603 12.847 69.03 12.741 69.998 13.534L81.713 23.047C81.924 23.223 82.101 23.435 82.206 23.681C82.312 23.91 82.365 24.157 82.365 24.421L80.568 29.741C80.568 30.076 82.013 32.243 82.33 32.383H88.485L98.132 30.639C98.185 30.621 98.255 30.621 98.308 30.621H101.444C101.638 30.621 101.832 30.674 101.99 30.797L107.345 34.62C107.682 34.866 107.823 35.289 107.7 35.677Z" fill="#70BFFF"/>
<path d="M96.108 67.21L89.378 78.185L77.84 86.659C77.593 86.835 77.329 86.941 77.047 86.976C76.748 87.029 76.448 86.994 76.166 86.87L69.116 83.847C68.542 83.6 67.911 83.511 67.291 83.59L54.938 85.133C54.417 85.198 53.886 85.145 53.386 84.98L48.86 83.47L54.145 78.185L55.907 71.582L64.796 64.831L92.902 59.863L96.108 67.21Z" fill="#2B59A1"/>
<path d="M82.332 24.42V28.859L70 34.144L62.953 35.906L59.43 39.429L55.907 41.191L50.828 44.577C50.691 44.669 50.543 44.739 50.386 44.79L45.649 46.298C45.286 46.413 44.971 46.643 44.751 46.952L40.053 53.523V40.405C40.053 39.767 40.227 39.14 40.555 38.592L45.338 30.62L47.1 27.097H53.897C54.064 27.097 54.23 27.109 54.396 27.132L66.479 28.858L76.304 27.221C76.796 27.138 77.264 26.953 77.68 26.677L82.176 23.679C82.279 23.909 82.332 24.155 82.332 24.42Z" fill="#2785BD"/>
<path d="M68.468 69.3771L58.109 76.1601C57.845 76.3361 57.633 76.5651 57.492 76.8471L56.206 79.4191C56.03 79.7711 55.766 80.0361 55.413 80.2121L48.948 83.4361L48.895 83.4711L48.719 83.3831L46.059 82.062L45.883 81.9741C45.724 81.8861 45.566 81.7981 45.425 81.6751C45.407 81.6931 45.407 81.6751 45.407 81.6751C45.248 81.5691 45.09 81.4281 44.967 81.3051L44.861 81.1991L38.501 74.8391C38.378 74.7161 38.254 74.6101 38.131 74.5041L37.955 74.3811L31.613 69.8711C31.437 69.7481 31.331 69.5721 31.278 69.3781H40.668C41.443 69.3781 42.183 69.131 42.782 68.673L48.895 64.0931H57.703L62.988 62.3311L68.468 69.3771Z" fill="#2785BD"/>
<path d="M53.95 35.661L47.099 27.098L59.119 32.249C59.325 32.337 59.512 32.464 59.67 32.622L62.954 35.906L59.431 39.429L55.908 41.191L54.245 36.204C54.179 36.006 54.078 35.823 53.95 35.661Z" fill="#D9EEFF"/>
<path d="M96.103 67.217L89.379 78.185L102.687 74.859C103.186 74.734 103.605 74.397 103.836 73.938L104.99 71.632C105.15 71.311 105.208 70.95 105.159 70.594L103.535 59.226C103.494 58.948 103.422 58.676 103.318 58.416L99.95 49.999L96.103 67.217Z" fill="#2785BD"/>
<path d="M101.71 30.621L107.71 33.239C108.744 33.699 109.082 35.001 108.404 35.906L104 42L101.71 30.621Z" fill="#D9EEFF"/>
<path d="M81.763 78.1861C81.042 78.1861 80.396 78.6251 80.128 79.2921L77.047 86.9761C77.329 86.9411 77.593 86.8351 77.84 86.6591L89.379 78.1851L81.763 78.1861Z" fill="#2785BD"/>
<path d="M99.949 49.999L92.902 59.864L96.103 67.217L99.949 49.999Z" fill="#D9EEFF"/>
<path d="M71.762 54.403L82.987 71.583L89.378 64.092L71.762 48.237L55.907 46.475L47.49 48.16C47.233 48.211 46.99 48.32 46.778 48.479L40.052 53.523L43.279 58.364C43.473 58.653 43.575 58.993 43.575 59.342V64.093H48.86L59.43 57.046L61.192 53.523L64.627 51.763L71.762 54.403Z" fill="#2785BD"/>
<path d="M55.907 41.191V46.476L71.762 48.237L55.907 41.191Z" fill="#70BFFF"/>
<path d="M37.233 60.393C37.039 60.446 36.845 60.516 36.687 60.64L43.575 64.093V58.808L37.233 60.393Z" fill="#70BFFF"/>
<path d="M101.71 30.621H98.187L96.746 35.312C96.577 35.821 95.996 36.061 95.516 35.821L82.332 28.859L78.809 39.429L71.762 48.237L89.379 64.092L91.141 62.33L99.949 49.998L104 43L101.71 30.621Z" fill="#70BFFF"/>
<path d="M57.669 23.574L54.145 27.097L66.477 28.859L57.669 23.574Z" fill="#70BFFF"/>
<path d="M71.762 54.403L66.477 55.284L62.954 62.331L74.088 77.446C74.722 78.309 75.955 78.415 76.73 77.675L82.984 71.58L71.762 54.403Z" fill="#70BFFF"/>
<path d="M54.145 27.097H47.098L50.105 24.09C50.436 23.759 50.884 23.574 51.35 23.574H57.667L54.145 27.097ZM70.259 34.033C70.086 34.107 69.908 34.167 69.725 34.213L62.953 35.906L78.808 39.429L82.331 28.859L70.259 34.033Z" fill="#D9EEFF"/>
<path d="M62.954 44.323V35.906L59.633 39.227C59.499 39.361 59.344 39.472 59.175 39.556L55.907 41.191L71.762 48.238L78.809 39.43L74.243 41.903C73.767 42.16 73.255 42.343 72.723 42.446L62.954 44.323ZM69.107 51.762H65.052C64.772 51.762 64.497 51.829 64.249 51.956L61.707 53.258C61.372 53.429 61.103 53.702 60.935 54.038L59.64 56.626C59.503 56.901 59.296 57.133 59.041 57.304L48.86 64.092H57.096C57.475 64.092 57.852 64.03 58.209 63.911L62.953 62.331L66.075 56.086C66.327 55.582 66.804 55.228 67.361 55.136L71.762 54.403L70.59 52.574C70.266 52.069 69.708 51.762 69.107 51.762Z" fill="#D9EEFF"/>
<path d="M40.053 53.521V40.404C40.053 39.766 40.227 39.139 40.555 38.591L45.338 30.619L47.1 27.096L50.107 24.089C50.438 23.758 50.885 23.573 51.352 23.573H57.299C57.563 23.573 57.81 23.468 57.986 23.274L66.759 13.761C67.604 12.845 69.031 12.739 70 13.532L81.716 23.045C81.927 23.221 82.103 23.432 82.209 23.679C82.314 23.908 82.367 24.155 82.367 24.419L82.332 24.523V28.858L88.872 32.312L98.134 30.638C98.149 30.633 98.166 30.636 98.183 30.633L98.187 30.62H101.71L107.71 33.238C108.745 33.698 109.083 35 108.406 35.905L107.067 37.579C107.049 37.632 107.014 37.702 106.979 37.755L100.126 49.752C100.058 49.875 100.023 50.012 100.013 50.156L103.318 58.416C103.422 58.676 103.494 58.948 103.535 59.226L105.159 70.594C105.208 70.95 105.15 71.311 104.99 71.632L103.836 73.938C103.605 74.397 103.186 74.734 102.687 74.859L89.379 78.185L77.84 86.659C77.593 86.835 77.329 86.941 77.047 86.976C76.747 87.029 76.448 86.993 76.166 86.87L69.116 83.847C68.542 83.601 67.911 83.511 67.291 83.59L54.938 85.133C54.417 85.198 53.886 85.146 53.386 84.98L48.86 83.47L48.873 83.457L48.721 83.381L46.061 82.06L45.885 81.972C45.727 81.884 45.568 81.796 45.427 81.673C45.409 81.691 45.409 81.673 45.409 81.673C45.251 81.567 45.092 81.426 44.969 81.303L44.863 81.197L38.503 74.837C38.309 74.678 38.133 74.52 37.957 74.379L31.615 69.869C31.439 69.746 31.333 69.57 31.28 69.376C31.21 69.147 31.245 68.883 31.368 68.654L36.195 61.202C36.316 60.978 36.488 60.789 36.71 60.649L36.688 60.638C36.846 60.514 37.04 60.444 37.234 60.391L43.499 58.825C43.449 58.662 43.376 58.505 43.28 58.362L40.053 53.521ZM40.053 53.521L40.117 53.432C40.12 53.444 40.119 53.457 40.122 53.469L40.053 53.521Z" stroke="#40396E" stroke-width="3" stroke-miterlimit="10" stroke-linecap="round" stroke-linejoin="round"/>
<rect x="1.5" y="60.5" width="43" height="28" rx="14" fill="white"/>
<rect x="1.5" y="60.5" width="43" height="28" rx="14" stroke="black" stroke-width="3"/>
<path d="M17.4318 80.1591C16.5379 80.1591 15.7443 80.0019 15.0511 79.6875C14.3617 79.3693 13.8182 78.9318 13.4205 78.375C13.0265 77.8182 12.8258 77.178 12.8182 76.4545H15.8864C15.8977 76.8561 16.053 77.1761 16.3523 77.4148C16.6553 77.6534 17.0152 77.7727 17.4318 77.7727C17.7538 77.7727 18.0379 77.7045 18.2841 77.5682C18.5303 77.428 18.7235 77.2311 18.8636 76.9773C19.0038 76.7235 19.072 76.428 19.0682 76.0909C19.072 75.75 19.0038 75.4545 18.8636 75.2045C18.7235 74.9508 18.5303 74.7557 18.2841 74.6193C18.0379 74.4792 17.7538 74.4091 17.4318 74.4091C17.0985 74.4091 16.7898 74.4905 16.5057 74.6534C16.2254 74.8125 16.0189 75.0341 15.8864 75.3182L13.1136 74.7727L13.5682 68.3636H21.3864V70.8864H16.1591L15.9318 73.4545H16C16.1818 73.1023 16.4962 72.8106 16.9432 72.5795C17.3902 72.3447 17.9091 72.2273 18.5 72.2273C19.1932 72.2273 19.8106 72.3883 20.3523 72.7102C20.8977 73.0322 21.3277 73.4773 21.642 74.0455C21.9602 74.6098 22.1174 75.2614 22.1136 76C22.1174 76.8106 21.9242 77.5303 21.5341 78.1591C21.1477 78.7841 20.6042 79.2746 19.9034 79.6307C19.2027 79.983 18.3788 80.1591 17.4318 80.1591ZM27.7031 83.4545C26.8281 83.4545 26.0781 83.3295 25.4531 83.0795C24.8319 82.8333 24.349 82.4924 24.0043 82.0568C23.6634 81.625 23.4721 81.1288 23.4304 80.5682H26.4531C26.4834 80.7538 26.5592 80.9034 26.6804 81.017C26.8016 81.1307 26.9569 81.2121 27.1463 81.2614C27.3395 81.3144 27.5554 81.3409 27.794 81.3409C28.1993 81.3409 28.5346 81.2424 28.7997 81.0455C29.0687 80.8485 29.2031 80.4924 29.2031 79.9773V78.5H29.1122C28.9986 78.7955 28.8243 79.0473 28.5895 79.2557C28.3546 79.4602 28.0724 79.6174 27.7429 79.7273C27.4134 79.8333 27.0516 79.8864 26.6577 79.8864C26.0365 79.8864 25.4645 79.7424 24.9418 79.4545C24.4228 79.1667 24.0062 78.7102 23.6918 78.0852C23.3812 77.4602 23.2259 76.6439 23.2259 75.6364C23.2259 74.5833 23.3887 73.7273 23.7145 73.0682C24.044 72.4091 24.4683 71.9261 24.9872 71.6193C25.5099 71.3125 26.0592 71.1591 26.6349 71.1591C27.0668 71.1591 27.4455 71.2348 27.7713 71.3864C28.0971 71.5341 28.3698 71.733 28.5895 71.983C28.8092 72.2292 28.9759 72.5 29.0895 72.7955H29.1577V71.2727H32.294V79.9773C32.294 80.7159 32.1027 81.3428 31.7202 81.858C31.3414 82.3769 30.8073 82.7727 30.1179 83.0455C29.4285 83.3182 28.6236 83.4545 27.7031 83.4545ZM27.8168 77.6591C28.1046 77.6591 28.3509 77.5795 28.5554 77.4205C28.7637 77.2576 28.9228 77.0265 29.0327 76.7273C29.1463 76.4242 29.2031 76.0606 29.2031 75.6364C29.2031 75.2045 29.1463 74.8352 29.0327 74.5284C28.9228 74.2178 28.7637 73.9811 28.5554 73.8182C28.3509 73.6515 28.1046 73.5682 27.8168 73.5682C27.5289 73.5682 27.2827 73.6515 27.0781 73.8182C26.8774 73.9811 26.7221 74.2178 26.6122 74.5284C26.5062 74.8352 26.4531 75.2045 26.4531 75.6364C26.4531 76.0682 26.5062 76.4356 26.6122 76.7386C26.7221 77.0379 26.8774 77.267 27.0781 77.4261C27.2827 77.5814 27.5289 77.6591 27.8168 77.6591Z" fill="black"/>
</svg>
