<svg width="48" height="48" viewBox="0 0 48 48" fill="none" xmlns="http://www.w3.org/2000/svg">
<path d="M31 29L23 37L31 45" stroke="black" stroke-width="6"/>
<path d="M14.8756 30C13.3347 27.331 12.7175 24.2281 13.1198 21.1726C13.522 18.1171 14.9213 15.2797 17.1005 13.1005C19.2797 10.9213 22.1171 9.52204 25.1726 9.11977C28.2281 8.71751 31.331 9.3347 34 10.8756C36.669 12.4166 38.7549 14.7951 39.9343 17.6424C41.1137 20.4897 41.3206 23.6466 40.523 26.6235C39.7253 29.6003 37.9677 32.2308 35.5227 34.1069C33.0776 35.9831 30.0819 37 27 37" stroke="black" stroke-width="6" stroke-linecap="round"/>
<path d="M28 26L20 34L28 42" stroke="#0BB458" stroke-width="6"/>
<path d="M11.8756 27C10.3347 24.331 9.71751 21.2281 10.1198 18.1726C10.522 15.1171 11.9213 12.2797 14.1005 10.1005C16.2797 7.92129 19.1171 6.52204 22.1726 6.11977C25.2281 5.71751 28.331 6.3347 31 7.87564C33.669 9.41658 35.7549 11.7951 36.9343 14.6424C38.1137 17.4897 38.3206 20.6466 37.523 23.6235C36.7253 26.6003 34.9677 29.2308 32.5227 31.1069C30.0776 32.9831 27.0819 34 24 34" stroke="#0BB458" stroke-width="6" stroke-linecap="round"/>
</svg>
