<svg width="111" height="100" viewBox="0 0 111 100" fill="none" xmlns="http://www.w3.org/2000/svg">
<path opacity="0.35" d="M35.5 98C29.159 98 24 92.841 24 86.5V63.5C24 60.826 25.128 58.337 27 56.576V53.424C25.128 51.663 24 49.174 24 46.5V39.753C24 28.522 29.937 19.874 39 17.015V10.5C39 6.916 41.916 4 45.5 4H58.5C62.084 4 65 6.916 65 10.5V17.015C74.063 19.874 80 28.522 80 39.753V46.5C80 49.174 78.872 51.663 77 53.424V56.576C78.872 58.337 80 60.826 80 63.5V86.5C80 92.841 74.841 98 68.5 98H35.5Z" fill="black"/>
<path d="M33.5 96C27.159 96 22 90.841 22 84.5V61.5C22 58.826 23.128 56.337 25 54.576V51.424C23.128 49.663 22 47.174 22 44.5V37.753C22 26.522 27.937 17.874 37 15.015V8.5C37 4.916 39.916 2 43.5 2H56.5C60.084 2 63 4.916 63 8.5V15.015C72.063 17.874 78 26.522 78 37.753V44.5C78 47.174 76.872 49.663 75 51.424V54.576C76.872 56.337 78 58.826 78 61.5V84.5C78 90.841 72.841 96 66.5 96H33.5Z" fill="#F2F2F2"/>
<path d="M68.5 47.5C70.157 47.5 71.5 46.157 71.5 44.5V37.753C71.5 28.224 65.776 20.5 56.247 20.5H55.5V15.5H57.5V8.5H42.5V15.5H44.5V20.5H43.753C34.225 20.5 28.5 28.224 28.5 37.753V44.5C28.5 46.157 29.843 47.5 31.5 47.5V58.5C29.843 58.5 28.5 59.843 28.5 61.5V84.5C28.5 87.261 30.739 89.5 33.5 89.5H66.5C69.261 89.5 71.5 87.261 71.5 84.5V61.5C71.5 59.843 70.157 58.5 68.5 58.5V47.5Z" fill="#70BFFF"/>
<path opacity="0.35" d="M69 46H31V49H69V46Z" fill="#40396E"/>
<path d="M43.753 20.5C35.515 20.5 30.129 26.278 28.819 34H71.181C69.871 26.278 64.485 20.5 56.247 20.5H55.5V15.5H57.5V8.5H42.5V15.5H44.5V20.5H43.753Z" fill="#D9EEFF"/>
<path opacity="0.35" d="M69 57H31V60H69V57Z" fill="#40396E"/>
<path d="M55 17H45L43 9H57L55 17Z" fill="#40396E"/>
<path d="M68.5 47.5C70.157 47.5 71.5 46.157 71.5 44.5V37.753C71.5 28.224 65.776 20.5 56.247 20.5H55.5V15.5H56.5V8.5H43.5V15.5H44.5V20.5H43.753C34.225 20.5 28.5 28.224 28.5 37.753V44.5C28.5 46.157 29.843 47.5 31.5 47.5V58.5C29.843 58.5 28.5 59.843 28.5 61.5V84.5C28.5 87.261 30.739 89.5 33.5 89.5H66.5C69.261 89.5 71.5 87.261 71.5 84.5V61.5C71.5 59.843 70.157 58.5 68.5 58.5V47.5Z" stroke="#40396E" stroke-width="3" stroke-miterlimit="10" stroke-linecap="round" stroke-linejoin="round"/>
<rect x="59.5" y="10.5" width="50" height="28" rx="14" fill="white"/>
<rect x="59.5" y="10.5" width="50" height="28" rx="14" stroke="black" stroke-width="3"/>
<path d="M76.4773 18.3636V30H73.3182V21.2727H73.25L70.7045 22.7955V20.1136L73.5682 18.3636H76.4773ZM78.8665 30V27.7273L83.2074 24.1364C83.4953 23.8977 83.7415 23.6742 83.946 23.4659C84.1544 23.2538 84.3134 23.036 84.4233 22.8125C84.5369 22.589 84.5938 22.3409 84.5938 22.0682C84.5938 21.7689 84.5294 21.5133 84.4006 21.3011C84.2756 21.089 84.1013 20.9261 83.8778 20.8125C83.6544 20.6951 83.3968 20.6364 83.1051 20.6364C82.8134 20.6364 82.5559 20.6951 82.3324 20.8125C82.1127 20.9299 81.9422 21.1023 81.821 21.3295C81.6998 21.5568 81.6392 21.8333 81.6392 22.1591H78.6392C78.6392 21.3409 78.8229 20.6364 79.1903 20.0455C79.5578 19.4545 80.0767 19 80.7472 18.6818C81.4176 18.3636 82.2036 18.2045 83.1051 18.2045C84.0369 18.2045 84.8438 18.3542 85.5256 18.6534C86.2112 18.9489 86.7396 19.3655 87.1108 19.9034C87.4858 20.4413 87.6733 21.072 87.6733 21.7955C87.6733 22.2424 87.5805 22.6875 87.3949 23.1307C87.2093 23.5701 86.8759 24.0568 86.3949 24.5909C85.9138 25.125 85.2301 25.7614 84.3438 26.5L83.2528 27.4091V27.4773H87.7983V30H78.8665ZM93.4375 33.4545C92.5625 33.4545 91.8125 33.3295 91.1875 33.0795C90.5663 32.8333 90.0833 32.4924 89.7386 32.0568C89.3977 31.625 89.2064 31.1288 89.1648 30.5682H92.1875C92.2178 30.7538 92.2936 30.9034 92.4148 31.017C92.536 31.1307 92.6913 31.2121 92.8807 31.2614C93.0739 31.3144 93.2898 31.3409 93.5284 31.3409C93.9337 31.3409 94.2689 31.2424 94.5341 31.0455C94.803 30.8485 94.9375 30.4924 94.9375 29.9773V28.5H94.8466C94.733 28.7955 94.5587 29.0473 94.3239 29.2557C94.089 29.4602 93.8068 29.6174 93.4773 29.7273C93.1477 29.8333 92.786 29.8864 92.392 29.8864C91.7708 29.8864 91.1989 29.7424 90.6761 29.4545C90.1572 29.1667 89.7405 28.7102 89.4261 28.0852C89.1155 27.4602 88.9602 26.6439 88.9602 25.6364C88.9602 24.5833 89.1231 23.7273 89.4489 23.0682C89.7784 22.4091 90.2027 21.9261 90.7216 21.6193C91.2443 21.3125 91.7936 21.1591 92.3693 21.1591C92.8011 21.1591 93.1799 21.2348 93.5057 21.3864C93.8314 21.5341 94.1042 21.733 94.3239 21.983C94.5436 22.2292 94.7102 22.5 94.8239 22.7955H94.892V21.2727H98.0284V29.9773C98.0284 30.7159 97.8371 31.3428 97.4545 31.858C97.0758 32.3769 96.5417 32.7727 95.8523 33.0455C95.1629 33.3182 94.358 33.4545 93.4375 33.4545ZM93.5511 27.6591C93.839 27.6591 94.0852 27.5795 94.2898 27.4205C94.4981 27.2576 94.6572 27.0265 94.767 26.7273C94.8807 26.4242 94.9375 26.0606 94.9375 25.6364C94.9375 25.2045 94.8807 24.8352 94.767 24.5284C94.6572 24.2178 94.4981 23.9811 94.2898 23.8182C94.0852 23.6515 93.839 23.5682 93.5511 23.5682C93.2633 23.5682 93.017 23.6515 92.8125 23.8182C92.6117 23.9811 92.4564 24.2178 92.3466 24.5284C92.2405 24.8352 92.1875 25.2045 92.1875 25.6364C92.1875 26.0682 92.2405 26.4356 92.3466 26.7386C92.4564 27.0379 92.6117 27.267 92.8125 27.4261C93.017 27.5814 93.2633 27.6591 93.5511 27.6591Z" fill="black"/>
</svg>
