<svg width="30" height="30" viewBox="0 0 30 30" fill="none" xmlns="http://www.w3.org/2000/svg">
<path d="M15.8115 25.5309L7.78544 17.9912C5.71628 16.0475 5.46501 12.8488 7.20527 10.6058L7.56222 10.1457C9.60508 7.51273 13.7056 7.95431 15.1411 10.9619C15.5476 11.8137 16.7601 11.8137 17.1666 10.9619C18.6021 7.95431 22.7026 7.51273 24.7455 10.1457L25.1024 10.6058C26.8427 12.8488 26.5914 16.0475 24.5223 17.9912L16.4962 25.5309C16.324 25.6926 16.2298 25.7797 16.1567 25.8323C16.1557 25.833 16.1548 25.8337 16.1539 25.8344C16.1529 25.8337 16.152 25.833 16.151 25.8323C16.0779 25.7797 15.9837 25.6926 15.8115 25.5309Z" fill="black" stroke="black"/>
<path d="M13.5038 23.2232L5.47776 15.6835C3.4086 13.7398 3.15733 10.5411 4.89759 8.29814L5.25454 7.83807C7.2974 5.20505 11.398 5.64663 12.8334 8.65421C13.2399 9.50601 14.4524 9.50601 14.859 8.65422C16.2944 5.64663 20.395 5.20505 22.4378 7.83807L22.7948 8.29814C24.535 10.5411 24.2837 13.7398 22.2146 15.6835L14.1885 23.2232C14.0163 23.3849 13.9221 23.4721 13.849 23.5247C13.8481 23.5254 13.8471 23.526 13.8462 23.5267C13.8452 23.526 13.8443 23.5254 13.8433 23.5247C13.7702 23.4721 13.676 23.3849 13.5038 23.2232Z" fill="#FF7D75" stroke="black"/>
</svg>
