<svg width="100" height="100" viewBox="0 0 100 100" fill="none" xmlns="http://www.w3.org/2000/svg">
<path opacity="0.35" d="M35.5 98C29.159 98 24 92.841 24 86.5V63.5C24 60.826 25.128 58.337 27 56.576V53.424C25.128 51.663 24 49.174 24 46.5V39.753C24 28.522 29.937 19.874 39 17.015V10.5C39 6.916 41.916 4 45.5 4H58.5C62.084 4 65 6.916 65 10.5V17.015C74.063 19.874 80 28.522 80 39.753V46.5C80 49.174 78.872 51.663 77 53.424V56.576C78.872 58.337 80 60.826 80 63.5V86.5C80 92.841 74.841 98 68.5 98H35.5Z" fill="black"/>
<path d="M33.5 96C27.159 96 22 90.841 22 84.5V61.5C22 58.826 23.128 56.337 25 54.576V51.424C23.128 49.663 22 47.174 22 44.5V37.753C22 26.522 27.937 17.874 37 15.015V8.5C37 4.916 39.916 2 43.5 2H56.5C60.084 2 63 4.916 63 8.5V15.015C72.063 17.874 78 26.522 78 37.753V44.5C78 47.174 76.872 49.663 75 51.424V54.576C76.872 56.337 78 58.826 78 61.5V84.5C78 90.841 72.841 96 66.5 96H33.5Z" fill="#F2F2F2"/>
<path d="M68.5 47.5C70.157 47.5 71.5 46.157 71.5 44.5V37.753C71.5 28.224 65.776 20.5 56.247 20.5H55.5V15.5H57.5V8.5H42.5V15.5H44.5V20.5H43.753C34.225 20.5 28.5 28.224 28.5 37.753V44.5C28.5 46.157 29.843 47.5 31.5 47.5V58.5C29.843 58.5 28.5 59.843 28.5 61.5V84.5C28.5 87.261 30.739 89.5 33.5 89.5H66.5C69.261 89.5 71.5 87.261 71.5 84.5V61.5C71.5 59.843 70.157 58.5 68.5 58.5V47.5Z" fill="#70BFFF"/>
<path opacity="0.35" d="M69 46H31V49H69V46Z" fill="#40396E"/>
<path d="M43.753 20.5C35.515 20.5 30.129 26.278 28.819 34H71.181C69.871 26.278 64.485 20.5 56.247 20.5H55.5V15.5H57.5V8.5H42.5V15.5H44.5V20.5H43.753Z" fill="#D9EEFF"/>
<path opacity="0.35" d="M69 57H31V60H69V57Z" fill="#40396E"/>
<path d="M55 17H45L43 9H57L55 17Z" fill="#40396E"/>
<path d="M68.5 47.5C70.157 47.5 71.5 46.157 71.5 44.5V37.753C71.5 28.224 65.776 20.5 56.247 20.5H55.5V15.5H56.5V8.5H43.5V15.5H44.5V20.5H43.753C34.225 20.5 28.5 28.224 28.5 37.753V44.5C28.5 46.157 29.843 47.5 31.5 47.5V58.5C29.843 58.5 28.5 59.843 28.5 61.5V84.5C28.5 87.261 30.739 89.5 33.5 89.5H66.5C69.261 89.5 71.5 87.261 71.5 84.5V61.5C71.5 59.843 70.157 58.5 68.5 58.5V47.5Z" stroke="#40396E" stroke-width="3" stroke-miterlimit="10" stroke-linecap="round" stroke-linejoin="round"/>
</svg>
