<svg width="51" height="51" viewBox="0 0 51 51" fill="none" xmlns="http://www.w3.org/2000/svg">
<rect x="3" y="3" width="48" height="48" rx="12" fill="black"/>
<rect width="48" height="48" rx="12" fill="#0BB458"/>
<path d="M23.9998 36.5C29.3897 36.5 33.8332 32.4778 33.8332 27.4286C33.8332 24.1583 32.1085 20.8303 30.1799 18.1169C28.2408 15.3889 26.0396 13.2054 24.9766 12.2112C24.4232 11.6936 23.5764 11.6936 23.023 12.2112C21.9601 13.2054 19.7589 15.3889 17.8198 18.1169C15.8912 20.8303 14.1665 24.1583 14.1665 27.4286C14.1665 32.4778 18.61 36.5 23.9998 36.5Z" fill="#70BFFF" stroke="white"/>
<path d="M23.9998 31.9999C23.2995 31.9999 22.6059 31.862 21.9589 31.5939C21.3118 31.3259 20.7238 30.9331 20.2286 30.4378C19.7334 29.9426 19.3405 29.3546 19.0725 28.7076C18.8045 28.0605 18.6665 27.367 18.6665 26.6666" stroke="white" stroke-width="2" stroke-linecap="round"/>
</svg>
