<svg width="64" height="64" viewBox="0 0 64 64" fill="none" xmlns="http://www.w3.org/2000/svg">
<path opacity="0.35" d="M20.6718 62.0799C18.3678 62.0799 16.5118 60.2239 16.5118 57.9199C16.5118 55.2959 17.9838 52.9279 20.3518 51.7759V49.7279C20.2238 49.5999 20.0958 49.4079 19.9678 49.2799H19.9038C18.4958 50.2399 16.7678 50.7519 14.9758 50.7519C11.8398 50.7519 9.08779 49.0879 7.55178 46.4639C3.90379 45.4399 1.27979 42.0479 1.27979 37.9519C1.27979 35.5199 2.23978 33.2799 3.96778 31.6159C3.96778 31.4879 3.96778 31.4239 3.96778 31.2959C3.96778 31.1679 3.96778 31.0399 3.96778 30.9119C2.30379 29.2479 1.27979 26.9439 1.27979 24.6399C1.27979 21.5039 2.81578 18.8159 5.37578 17.2799C6.27178 13.5039 9.34379 10.6879 13.1838 10.4959C14.7198 8.25588 17.1518 6.78388 19.8398 6.52788C21.6318 4.73588 23.8078 3.83988 26.3038 3.83988C29.5038 3.83988 31.4878 4.99188 33.3438 7.67988C34.3678 7.87188 36.2238 8.63988 37.2478 9.53588L40.0638 5.50388C40.8318 4.41588 42.1118 3.77588 43.4558 3.77588C44.7998 3.77588 46.0798 4.41588 46.8478 5.50388L55.8078 18.3039C56.8958 19.8399 56.8318 21.8239 55.6798 23.2959C55.6158 23.4239 55.4238 23.5519 55.2958 23.7439L59.8398 31.3599C60.6078 32.7039 60.6078 34.3679 59.8398 35.6479C59.6478 35.9039 59.3278 36.4159 58.7518 36.9919L63.4238 45.4399C64.3838 47.1039 64.1278 49.2159 62.7198 50.5599C62.2078 51.0719 58.3678 54.9119 49.9198 56.3199V57.9839C49.9198 60.2879 48.0638 62.1439 45.7598 62.1439L20.6718 62.0799Z" fill="black"/>
<path d="M19.392 60.7999C17.088 60.7999 15.232 58.9439 15.232 56.6399C15.232 54.0159 16.704 51.6479 19.072 50.4959V48.4479C18.944 48.3199 18.816 48.1279 18.688 47.9999H18.624C17.216 48.9599 15.488 49.4719 13.696 49.4719C10.56 49.4719 7.808 47.8079 6.272 45.1839C2.624 44.1599 0 40.7679 0 36.6719C0 34.2399 0.96 31.9999 2.688 30.3359C2.688 30.2079 2.688 30.1439 2.688 30.0159C2.688 29.8879 2.688 29.7599 2.688 29.6319C1.024 27.9679 0 25.6639 0 23.3599C0 20.2239 1.536 17.4719 4.096 15.9999C4.992 12.2239 8.064 9.40788 11.904 9.21588C13.44 6.91188 15.872 5.50388 18.56 5.18388C20.352 3.39188 22.528 2.49588 25.024 2.49588C28.224 2.49588 30.976 3.96788 32.768 6.65588C33.792 6.84788 34.944 7.29588 35.968 8.19188L38.784 4.15988C39.552 3.07188 40.832 2.43188 42.176 2.43188C43.52 2.43188 44.8 3.07188 45.568 4.15988L54.528 16.9599C55.616 18.4959 55.552 20.4799 54.4 21.9519C54.336 22.0799 54.144 22.2079 54.016 22.3999L58.56 30.0159C59.328 31.3599 59.328 33.0239 58.56 34.3039C58.368 34.5599 58.048 35.0719 57.472 35.6479L62.144 44.0959C63.104 45.7599 62.848 47.8719 61.44 49.2159C60.928 49.7279 57.088 53.5679 48.64 54.9759V56.6399C48.64 58.9439 46.784 60.7999 44.48 60.7999H19.392Z" fill="#F2F2F2"/>
<path d="M52.5438 34.3681C54.9758 33.2801 55.6798 32.1281 55.6798 32.1281L49.0238 20.9921C51.1358 20.2241 51.8398 19.3281 51.8398 19.3281L42.8798 6.52808L37.9518 13.5041C37.3758 13.3761 36.9278 13.3761 36.4158 13.5041L35.6478 13.7601L35.2638 13.0561C34.4318 11.5841 32.8958 10.6241 31.1678 10.6241C31.0398 10.6241 30.9758 10.6241 30.8478 10.6241L30.2078 10.6881L29.9518 10.1121C28.9918 8.00008 27.6478 6.65608 25.3438 6.65608C23.4878 6.65608 21.8878 7.48808 20.7998 8.96008L20.4798 9.40808L19.9678 9.34408C19.8398 9.34408 19.6478 9.34408 19.5198 9.34408C17.2798 9.34408 15.4238 10.7521 14.7198 12.8641L14.3998 13.6961L13.5678 13.5041C13.1838 13.3761 12.7998 13.3761 12.4158 13.3761C9.85584 13.3761 7.93584 15.4241 7.93584 17.9841V18.6881L7.23184 18.8801C5.24784 19.4561 3.90384 21.3121 3.90384 23.3601C3.90384 25.0241 4.86384 26.6241 6.33584 27.4561L7.03984 27.8401L6.78384 28.6081C6.65584 29.0561 6.52784 29.5681 6.52784 30.0801C6.52784 30.5281 6.59184 31.0401 6.78384 31.4881L7.03984 32.2561L6.33584 32.6401C4.79984 33.3441 3.83984 34.9441 3.83984 36.6721C3.83984 39.2321 5.88784 41.3441 8.44784 41.3441H9.15184L9.34384 42.0481C9.91984 44.0321 11.5838 45.3761 13.6318 45.3761C14.9758 45.3761 16.2558 44.8001 17.1518 43.7761L17.6638 43.2001L18.3038 43.5201C18.9438 43.8401 19.4558 43.9681 20.1598 43.9681C20.2878 43.9681 20.3518 43.9681 20.4798 43.9681L21.1198 43.9041L21.3758 44.4801C21.7598 45.2481 22.2718 45.9521 22.9758 46.5281L23.1678 46.7841V51.8401C23.1678 53.1841 21.6958 53.6321 20.9918 54.0161H20.9278H20.8638C19.9038 54.4641 19.2638 55.4241 19.2638 56.4481H34.6238C34.6238 55.2961 33.8558 54.2721 32.7678 53.9521C31.4238 53.5041 30.6558 53.0561 30.6558 51.7761V48.1281C33.0238 49.3441 35.3918 50.7521 40.5758 51.0721V56.4481H45.0558V51.0721C54.9118 50.4321 59.4558 46.0161 59.4558 46.0161L52.5438 34.3681Z" fill="#739F4D"/>
<path d="M37.3121 13.248C36.4161 13.248 35.5841 13.504 34.8801 13.888C34.0481 12.352 32.3841 11.328 30.5281 11.328C30.1441 11.328 29.8241 11.392 29.5041 11.456C28.9921 9.216 27.1361 7.552 24.7681 7.552C22.8481 7.552 21.3761 8.64 20.4801 10.24C20.0321 10.112 19.6481 10.048 19.1361 10.048C16.5121 10.048 14.5281 11.84 13.9521 14.336C13.3121 13.952 12.5441 13.76 11.7761 13.76C9.40809 13.76 7.68009 15.68 7.68009 18.048C7.68009 18.304 7.68009 18.496 7.74409 18.752H7.68009C5.31209 18.752 3.39209 20.672 3.39209 23.04C3.39209 25.088 4.80009 26.752 6.72009 27.2C6.84809 27.456 7.04009 27.712 7.23209 27.968C8.00009 26.624 9.47209 25.728 11.1361 25.728C12.5441 25.728 13.5681 26.368 14.4001 27.328C15.1681 26.304 16.4481 25.6 17.8561 25.6C18.6241 25.6 19.1361 25.792 19.7761 26.112V26.048C19.7761 24.448 18.6241 23.168 17.0241 23.168C16.8961 23.168 16.7681 23.168 16.7041 23.168C16.6401 23.168 16.5761 23.168 16.5761 23.168C16.2561 23.232 15.9361 23.36 15.6801 23.488C15.3601 22.912 14.8481 22.4 14.2081 22.144C14.4001 19.456 16.4481 17.408 19.1361 17.408C19.9681 17.408 20.7361 17.6 21.4401 17.984C22.3361 16.832 23.6161 16.128 25.2161 16.128C26.9441 16.128 28.3521 17.024 29.2481 18.432C29.8241 18.24 30.7201 17.984 31.3601 17.984C32.6401 17.984 33.4721 18.368 34.6241 19.2C35.3921 18.688 36.0961 18.624 37.0561 18.624C38.9761 18.624 40.6401 19.712 41.4721 21.248C41.9841 20.48 42.3041 19.52 42.3041 18.496C42.3681 15.488 40.1281 13.248 37.3121 13.248Z" fill="#96C362"/>
<path d="M49.9838 29.7601C49.9838 27.0081 47.8718 24.7041 45.2478 24.7041C42.6878 24.7041 40.6398 26.8801 40.5118 29.5681C38.6558 29.5681 37.0558 30.5921 36.2238 32.0641C35.5838 31.6161 34.8158 31.4241 34.0478 31.4241C32.2558 31.4241 30.5278 32.5121 30.0158 34.1121C29.0558 33.2801 28.2238 32.8961 26.8798 32.8961C24.9598 32.8961 23.4238 33.9201 22.4638 35.3921C21.6958 34.8801 20.7998 34.5601 19.7758 34.5601C18.7518 34.5601 18.0478 34.8801 17.2798 35.3921C16.8318 34.1121 15.3598 32.9601 13.6958 32.9601C12.9918 32.9601 11.6478 33.3441 10.8158 34.3681C9.98382 33.4081 8.76782 32.9601 7.80782 32.9601C6.52782 32.9601 4.15982 33.5361 3.83982 36.4801C3.58382 38.9761 5.88782 41.0241 8.38382 41.0241C8.51182 41.0241 8.63982 41.0241 8.70382 41.0241C9.15182 43.1361 10.8798 44.6721 13.1198 44.6721C14.6558 44.6721 15.9998 43.9041 16.8318 42.8161C17.6638 43.5841 18.6238 44.0961 19.8398 44.0961C20.1598 44.0961 20.5438 44.0321 20.8638 43.9681C21.4398 45.2481 22.3358 46.2081 23.6158 46.8481C24.5118 47.4241 25.5998 47.7441 26.7518 47.7441C29.5038 47.7441 31.6798 45.8881 32.4478 43.3281C32.7038 43.3921 33.0238 43.3921 33.2798 43.3921C35.2638 43.3921 37.0558 42.4961 38.2718 41.1521C39.2318 42.4961 40.8318 43.3921 42.6238 43.3921C45.5678 43.3921 47.9358 41.0241 47.9358 38.0801C47.9358 36.8001 47.4878 35.6481 46.7838 34.7521C48.5758 33.8561 49.9838 32.0001 49.9838 29.7601Z" fill="#407845"/>
<path d="M39.6162 45.76H44.7362V56.64H39.6162V45.76Z" fill="#D47F56"/>
<path d="M33.1518 54.1441C32.6398 53.9521 31.0398 53.8881 31.0398 51.9681V48.0641L32.5758 47.1041L31.0398 46.2081C28.4798 47.4881 25.0878 47.8081 22.8478 45.6321V51.9041C22.8478 53.2481 21.4398 53.6961 20.6718 54.1441C19.7118 54.5281 19.0078 55.4881 19.0078 56.5761H21.5678H24.1918H29.6958H33.4078H35.0078C35.0078 55.4241 34.2398 54.4641 33.1518 54.1441Z" fill="#D47F56"/>
<path d="M51.9038 34.2399C54.3358 33.1519 55.0398 31.9999 55.0398 31.9999L48.5758 20.7359C50.6878 19.9679 51.3918 19.0719 51.3918 19.0719L42.2398 6.33594L37.3118 13.4399L38.2718 13.7599L34.6878 18.9439C34.6878 18.9439 35.3918 19.5199 36.5438 19.9039C37.1198 20.0959 37.1838 20.7999 36.9278 21.3119L30.5918 31.9999C30.5918 31.9999 31.4238 32.8959 33.0238 33.5359C33.5358 33.7279 33.6638 34.3039 33.4078 34.8159L27.0718 45.6959C27.0718 45.6959 29.0558 47.2959 31.4878 48.3199C31.5518 49.9199 37.4398 50.0479 40.0638 50.3679C41.5358 50.5599 42.9438 50.4959 44.4158 50.3679C55.7438 49.3439 58.2398 45.3119 58.2398 45.3119L51.9038 34.2399Z" fill="#96C362"/>
<path opacity="0.35" d="M51.3921 33.536C49.6001 34.304 46.7201 35.008 42.2401 35.008C37.7601 35.008 35.1361 34.432 33.0241 33.536C32.4481 33.2801 31.4881 32.896 30.5921 32L36.4801 22.144C37.8881 22.528 39.8081 22.848 42.2401 22.848C45.3761 22.848 47.4881 22.4 49.0241 21.824L48.0001 20.16C46.7201 20.608 44.8641 20.928 42.2401 20.928C39.6801 20.928 36.9281 20.48 34.6881 19.008L38.3361 13.76L36.6721 12.8L32.5121 18.752C32.3201 19.072 32.2561 19.52 32.5121 19.904C32.6401 20.096 33.2801 20.8 34.6881 21.504L28.6081 31.68C28.4161 31.936 28.3521 32.256 28.6081 32.64C28.7361 32.896 29.3761 33.856 31.2321 34.816L25.1521 45.376C24.8961 45.76 24.9601 46.272 25.2801 46.592C25.7281 47.0401 28.4161 48.704 31.4241 50.24L31.5521 48.2561C28.8641 47.104 27.1361 45.632 27.1361 45.632L33.0241 35.52C35.0721 36.288 38.0801 36.864 42.3041 36.864C47.2321 36.864 50.4321 36.096 52.4801 35.136L51.3921 33.536Z" fill="#40396E"/>
<path d="M44.4802 57.6H40.0002C39.4882 57.6 39.0402 57.152 39.0402 56.64V52.16C35.5842 51.904 33.9202 51.2 32.0002 50.688V51.968C32.0002 52.48 32.0642 52.736 33.4722 53.184C34.9442 53.632 35.9682 55.04 35.9682 56.64C35.9682 57.152 35.5202 57.6 35.0082 57.6H19.3922C18.8802 57.6 18.4322 57.152 18.4322 56.64C18.4322 55.232 19.2642 53.888 20.6082 53.312C20.7362 53.248 20.9282 53.12 21.0562 53.056C21.8882 52.608 22.2722 52.352 22.2722 51.968V47.232C21.5682 46.592 20.9922 45.824 20.6082 44.992C19.7122 45.056 18.8802 44.928 17.9202 44.416C16.8322 45.632 15.2962 46.336 13.6962 46.336C11.2642 46.336 9.2162 44.736 8.44819 42.304C5.37619 42.304 3.2002 39.744 3.2002 36.672C3.2002 34.624 4.3522 32.704 6.1442 31.744C5.9522 31.168 5.8882 30.592 5.8882 30.016C5.8882 29.44 5.9522 28.864 6.1442 28.288C4.3522 27.264 3.2002 25.344 3.2002 23.36C3.2002 20.928 4.6722 18.88 7.0402 18.176C7.0402 15.04 9.28019 12.416 12.3522 12.416C12.8002 12.416 13.3122 12.48 13.7602 12.608C14.7202 9.92005 17.2162 8.19204 20.0322 8.44804C21.3762 6.72004 22.9122 5.76004 25.0242 5.76004C27.6482 5.76004 29.6962 7.29604 30.8482 9.79205C33.0882 9.66404 34.4962 10.816 35.5202 12.736C35.9682 12.608 36.4162 12.544 36.8642 12.608L41.4082 6.08004C41.7922 5.56804 42.6242 5.56804 43.0082 6.08004L51.9682 18.88C52.2242 19.2 52.2242 19.712 51.9042 20.032C51.8402 20.096 51.2642 20.864 49.7282 21.568L55.8082 31.744C56.0002 32.064 56.0002 32.448 55.8082 32.768C55.7442 32.896 55.1042 33.856 53.1842 34.88L59.6482 45.824C59.9042 46.208 59.7762 46.72 59.5202 46.976C59.3282 47.168 54.9122 51.392 45.4402 52.224V56.704C45.4402 57.152 44.9922 57.6 44.4802 57.6ZM40.9602 55.68H43.5202V51.264C43.5202 50.752 43.9042 50.368 44.4162 50.304C51.8402 49.792 56.1922 47.104 57.6642 46.016L51.0722 34.88C50.9442 34.624 50.8802 34.368 51.0082 34.112C51.0722 33.856 51.2642 33.664 51.5202 33.536C52.7362 32.96 53.5042 32.448 53.8882 32.064L47.6162 21.504C47.4882 21.248 47.4242 20.928 47.5522 20.672C47.6802 20.416 47.8722 20.16 48.1282 20.096C49.0242 19.776 49.6002 19.456 49.9842 19.2L42.2402 8.19204L38.1442 14.08C37.8882 14.4 37.5042 14.528 37.1202 14.464C36.8002 14.4 36.4162 14.4 36.1602 14.464L35.3282 14.72C34.8802 14.848 34.4322 14.656 34.1762 14.272L33.7922 13.568C33.0882 12.288 32.3842 11.52 30.9122 11.648L30.2722 11.712C29.8882 11.712 29.5042 11.52 29.3122 11.136L29.0562 10.56C28.2242 8.76804 26.8802 7.68004 24.9602 7.68004C23.4242 7.68004 22.4642 8.38404 21.4402 9.60004L21.1202 9.98405C20.9282 10.24 20.6082 10.368 20.2882 10.368L19.8402 10.304C17.9202 10.112 16.1922 11.264 15.5522 13.184L15.2322 14.016C15.0402 14.464 14.5922 14.72 14.0802 14.656L13.2482 14.464C12.9282 14.4 12.6082 14.336 12.2882 14.336C10.3042 14.336 8.89619 16.128 8.89619 18.176V18.88C8.89619 19.328 8.6402 19.648 8.1922 19.776L7.48819 19.968C6.0162 20.416 5.1202 21.696 5.1202 23.36C5.1202 24.704 5.8882 25.92 7.1042 26.624L7.8082 27.008C8.19219 27.2 8.38419 27.712 8.2562 28.16L8.0002 28.928C7.8722 29.312 7.8082 29.696 7.8082 30.08C7.8082 30.464 7.8722 30.848 8.0002 31.232L8.2562 32C8.38419 32.448 8.19219 32.896 7.8082 33.152L7.0402 33.408C5.8242 34.048 5.1202 35.328 5.1202 36.672C5.1202 38.72 6.4642 40.384 8.44819 40.384H9.1522C9.6002 40.384 9.9202 40.64 10.0482 41.088L10.2402 41.792C10.7522 43.392 12.0322 44.416 13.6322 44.416C14.7202 44.416 15.6802 43.968 16.3842 43.2L16.8962 42.624C17.1522 42.304 17.6642 42.176 18.0482 42.368L18.6882 42.688C19.3282 43.008 19.7762 43.072 20.3522 43.072L20.9922 43.008C21.3762 42.944 21.7602 43.2 21.9522 43.584L22.2082 44.16C22.5282 44.8 22.9762 45.376 23.5522 45.888C23.6162 45.952 23.6802 46.016 23.7442 46.08L23.9362 46.336C24.0642 46.464 24.0642 46.656 24.0642 46.848V51.904C24.0642 53.568 22.5922 54.336 21.8242 54.72C21.6962 54.784 21.5682 54.848 21.4402 54.912C21.3762 54.912 21.3122 54.976 21.3122 54.976C20.9922 55.104 20.7362 55.36 20.5442 55.616H33.6642C33.4722 55.296 33.1522 55.104 32.7682 54.976C31.5522 54.528 29.9522 53.952 29.9522 51.904V49.088C29.9522 48.768 30.1442 48.448 30.4002 48.256C30.6562 48.064 31.0402 48.128 31.3602 48.256C33.7282 49.216 35.1362 49.792 39.9362 50.304C40.4482 50.368 40.8322 50.752 40.8322 51.264V55.68H40.9602Z" fill="#40396E"/>
</svg>
