<svg width="268" height="297" viewBox="0 0 268 297" fill="none" xmlns="http://www.w3.org/2000/svg">
<path opacity="0.35" d="M226.781 154.504C225.692 154.504 224.581 154.271 223.568 153.829L217.297 151.14L205.743 152.583C205.338 152.634 204.92 152.66 204.504 152.66C203.429 152.66 202.367 152.489 201.347 152.153L196.802 150.637C196.368 150.491 195.953 150.303 195.562 150.072L192.895 148.747L192.802 148.696C192.552 148.558 192.265 148.396 191.943 148.179C191.771 148.07 191.602 147.953 191.44 147.827C191.072 147.553 190.712 147.241 190.371 146.899L183.925 140.486L177.848 136.168C176.496 135.217 175.491 133.791 175.029 132.158C174.492 130.334 174.714 128.305 175.642 126.578C175.736 126.404 175.83 126.246 175.93 126.093L180.652 118.804C181.077 118.094 181.604 117.46 182.224 116.914C182.372 116.773 182.53 116.638 182.693 116.511C183.008 116.264 183.339 116.046 183.689 115.853C183.594 115.396 183.547 114.926 183.552 114.452V101.405C183.552 99.597 184.043 97.818 184.972 96.261L189.635 88.49L191.284 85.19C191.602 84.556 192.013 83.987 192.51 83.493L195.509 80.493C197.075 78.93 199.149 78.073 201.352 78.073H204.863L211.981 70.354C213.654 68.54 216.032 67.5 218.504 67.5C220.544 67.5 222.537 68.21 224.115 69.5L235.813 79C236.876 79.883 237.651 80.901 238.159 82.062C238.623 83.093 238.868 84.252 238.868 85.42C238.868 85.596 238.861 85.773 238.847 85.948L239.924 86.517L246.736 85.286C247.212 85.176 247.699 85.12 248.189 85.12H251.711C252.609 85.12 253.482 85.302 254.307 85.661L260.189 88.226L260.311 88.272L260.476 88.354C262.725 89.398 264.368 91.365 264.993 93.77C265.628 96.217 265.123 98.78 263.607 100.803L262.504 102.186L257.165 111.533L259.353 117C259.649 117.741 259.856 118.517 259.969 119.306L261.594 130.673C261.827 132.376 261.55 134.053 260.795 135.553L259.649 137.844C258.56 140.008 256.602 141.577 254.271 142.163L242.197 145.181L231.687 152.898C230.526 153.728 229.296 154.223 227.982 154.408C227.589 154.472 227.186 154.504 226.781 154.504Z" fill="black"/>
<path d="M224.781 152.504C223.692 152.504 222.581 152.271 221.568 151.829L215.297 149.14L203.743 150.583C203.338 150.634 202.92 150.66 202.504 150.66C201.429 150.66 200.367 150.489 199.347 150.153L194.802 148.637C194.368 148.491 193.953 148.303 193.562 148.072L190.895 146.747L190.802 146.696C190.552 146.558 190.265 146.396 189.943 146.179C189.771 146.07 189.602 145.953 189.44 145.827C189.072 145.553 188.712 145.241 188.371 144.899L181.925 138.486L175.848 134.168C174.496 133.217 173.491 131.791 173.029 130.158C172.492 128.334 172.714 126.305 173.642 124.578C173.736 124.404 173.83 124.246 173.93 124.093L178.652 116.804C179.077 116.094 179.604 115.46 180.224 114.914C180.372 114.773 180.53 114.638 180.693 114.511C181.008 114.264 181.339 114.046 181.689 113.853C181.594 113.396 181.547 112.926 181.552 112.452V99.405C181.552 97.597 182.043 95.818 182.972 94.261L187.635 86.49L189.284 83.19C189.602 82.556 190.013 81.987 190.51 81.493L193.509 78.493C195.075 76.93 197.149 76.073 199.352 76.073H202.863L209.981 68.354C211.654 66.54 214.032 65.5 216.504 65.5C218.544 65.5 220.537 66.21 222.115 67.5L233.813 77C234.876 77.883 235.651 78.901 236.159 80.062C236.623 81.093 236.868 82.252 236.868 83.42C236.868 83.596 236.861 83.773 236.847 83.948L237.924 84.517L244.736 83.286C245.212 83.176 245.699 83.12 246.189 83.12H249.711C250.609 83.12 251.482 83.302 252.307 83.661L258.189 86.226L258.311 86.272L258.476 86.354C260.725 87.398 262.368 89.365 262.993 91.77C263.628 94.217 263.123 96.78 261.607 98.803L260.504 100.186L255.165 109.533L257.353 115C257.649 115.741 257.856 116.517 257.969 117.306L259.594 128.673C259.827 130.376 259.55 132.053 258.795 133.553L257.649 135.844C256.56 138.008 254.602 139.577 252.271 140.163L240.197 143.181L229.687 150.898C228.526 151.728 227.296 152.223 225.982 152.408C225.589 152.472 225.186 152.504 224.781 152.504Z" fill="#F2F2F2"/>
<path d="M255.7 94.677L255.066 96.58C255.048 96.633 255.013 96.703 254.978 96.756L248.125 108.753C248.037 108.912 247.984 109.088 248.002 109.281L249.27 128.835C249.288 129.152 249.129 129.469 248.865 129.663L237.784 136.939C237.555 137.098 237.255 137.133 236.991 137.045L230.843 134.949C230.544 134.843 230.226 134.914 229.98 135.108L223.55 140.199C223.391 140.322 223.215 140.375 223.039 140.393L197.143 142.454C197.073 142.454 197.02 142.454 196.949 142.436C196.879 142.436 196.79 142.418 196.72 142.383L194.06 141.062C193.831 140.956 193.62 140.833 193.426 140.674C193.408 140.692 193.408 140.674 193.408 140.674C193.214 140.533 193.038 140.375 192.862 140.198L186.502 133.838C186.308 133.679 186.132 133.521 185.956 133.38L179.614 128.87C179.438 128.747 179.332 128.571 179.279 128.377C179.209 128.148 179.244 127.884 179.367 127.655L184.194 120.203C184.317 119.974 184.493 119.78 184.722 119.639C184.881 119.516 185.074 119.445 185.268 119.392L196.86 116.926C197.477 116.767 196.332 115.693 195.979 115.164L188.245 112.751C188.139 112.61 188.086 112.416 188.086 112.24V99.398C188.086 98.764 188.262 98.147 188.597 97.583L193.353 89.656C193.371 89.638 193.371 89.603 193.388 89.586L195.062 86.239C195.115 86.151 195.168 86.063 195.238 85.992L197.88 83.35C198.373 82.857 199.06 82.575 199.765 82.575H205.297C205.561 82.575 205.808 82.469 205.984 82.276L214.757 72.763C215.603 71.847 217.03 71.741 217.998 72.534L229.713 82.047C229.924 82.223 230.101 82.435 230.206 82.681C230.312 82.91 230.365 83.157 230.365 83.421L228.568 88.741C228.568 89.076 230.013 91.243 230.33 91.383H236.485L246.132 89.639C246.185 89.621 246.255 89.621 246.308 89.621H249.444C249.638 89.621 249.832 89.674 249.99 89.797L255.345 93.62C255.682 93.866 255.823 94.289 255.7 94.677Z" fill="#70BFFF"/>
<path d="M244.108 126.21L237.378 137.185L225.84 145.659C225.593 145.835 225.329 145.941 225.047 145.976C224.748 146.029 224.448 145.994 224.166 145.87L217.116 142.847C216.542 142.6 215.911 142.511 215.291 142.59L202.938 144.133C202.417 144.198 201.886 144.145 201.386 143.98L196.86 142.47L202.145 137.185L203.907 130.582L212.796 123.831L240.902 118.863L244.108 126.21Z" fill="#2B59A1"/>
<path d="M230.332 83.42V87.859L218 93.144L210.953 94.906L207.43 98.429L203.907 100.191L198.828 103.577C198.691 103.669 198.543 103.739 198.386 103.79L193.649 105.298C193.286 105.413 192.971 105.643 192.751 105.952L188.053 112.523V99.405C188.053 98.767 188.227 98.14 188.555 97.592L193.338 89.62L195.1 86.097H201.897C202.064 86.097 202.23 86.109 202.396 86.132L214.479 87.858L224.304 86.221C224.796 86.138 225.264 85.953 225.68 85.677L230.176 82.679C230.279 82.909 230.332 83.155 230.332 83.42Z" fill="#2785BD"/>
<path d="M216.468 128.377L206.109 135.16C205.845 135.336 205.633 135.565 205.492 135.847L204.206 138.419C204.03 138.771 203.766 139.036 203.413 139.212L196.948 142.436L196.895 142.471L196.719 142.383L194.059 141.062L193.883 140.974C193.724 140.886 193.566 140.798 193.425 140.675C193.407 140.693 193.407 140.675 193.407 140.675C193.248 140.569 193.09 140.428 192.967 140.305L192.861 140.199L186.501 133.839C186.378 133.716 186.254 133.61 186.131 133.504L185.955 133.381L179.613 128.871C179.437 128.748 179.331 128.572 179.278 128.378H188.668C189.443 128.378 190.183 128.131 190.782 127.673L196.895 123.093H205.703L210.988 121.331L216.468 128.377Z" fill="#2785BD"/>
<path d="M201.95 94.661L195.099 86.098L207.119 91.249C207.325 91.337 207.512 91.464 207.67 91.622L210.954 94.906L207.431 98.429L203.908 100.191L202.245 95.204C202.179 95.006 202.078 94.823 201.95 94.661Z" fill="#D9EEFF"/>
<path d="M244.103 126.217L237.379 137.185L250.687 133.859C251.186 133.734 251.605 133.397 251.836 132.938L252.99 130.632C253.15 130.311 253.208 129.95 253.159 129.594L251.535 118.226C251.494 117.948 251.422 117.676 251.318 117.416L247.95 108.999L244.103 126.217Z" fill="#2785BD"/>
<path d="M249.71 89.621L255.71 92.239C256.744 92.699 257.082 94.001 256.404 94.906L252 101L249.71 89.621Z" fill="#D9EEFF"/>
<path d="M229.763 137.186C229.042 137.186 228.396 137.625 228.128 138.292L225.047 145.976C225.329 145.941 225.593 145.835 225.84 145.659L237.379 137.185L229.763 137.186Z" fill="#2785BD"/>
<path d="M247.949 108.999L240.902 118.864L244.103 126.217L247.949 108.999Z" fill="#D9EEFF"/>
<path d="M219.762 113.403L230.987 130.583L237.378 123.092L219.762 107.237L203.907 105.475L195.49 107.16C195.233 107.211 194.99 107.32 194.778 107.479L188.052 112.523L191.279 117.364C191.473 117.653 191.575 117.993 191.575 118.342V123.093H196.86L207.43 116.046L209.192 112.523L212.627 110.763L219.762 113.403Z" fill="#2785BD"/>
<path d="M203.907 100.191V105.476L219.762 107.237L203.907 100.191Z" fill="#70BFFF"/>
<path d="M185.233 119.393C185.039 119.446 184.845 119.516 184.687 119.64L191.575 123.093V117.808L185.233 119.393Z" fill="#70BFFF"/>
<path d="M249.71 89.621H246.187L244.746 94.312C244.577 94.821 243.996 95.061 243.516 94.821L230.332 87.859L226.809 98.429L219.762 107.237L237.379 123.092L239.141 121.33L247.949 108.998L252 102L249.71 89.621Z" fill="#70BFFF"/>
<path d="M205.669 82.574L202.145 86.097L214.477 87.859L205.669 82.574Z" fill="#70BFFF"/>
<path d="M219.762 113.403L214.477 114.284L210.954 121.331L222.088 136.446C222.722 137.309 223.955 137.415 224.73 136.675L230.984 130.58L219.762 113.403Z" fill="#70BFFF"/>
<path d="M202.145 86.097H195.098L198.105 83.09C198.436 82.759 198.884 82.574 199.35 82.574H205.667L202.145 86.097ZM218.259 93.033C218.086 93.107 217.908 93.167 217.725 93.213L210.953 94.906L226.808 98.429L230.331 87.859L218.259 93.033Z" fill="#D9EEFF"/>
<path d="M210.954 103.323V94.906L207.633 98.227C207.499 98.361 207.344 98.472 207.175 98.556L203.907 100.191L219.762 107.238L226.809 98.43L222.243 100.903C221.767 101.16 221.255 101.343 220.723 101.446L210.954 103.323ZM217.107 110.762H213.052C212.772 110.762 212.497 110.829 212.249 110.956L209.707 112.258C209.372 112.429 209.103 112.702 208.935 113.038L207.64 115.626C207.503 115.901 207.296 116.133 207.041 116.304L196.86 123.092H205.096C205.475 123.092 205.852 123.03 206.209 122.911L210.953 121.331L214.075 115.086C214.327 114.582 214.804 114.228 215.361 114.136L219.762 113.403L218.59 111.574C218.266 111.069 217.708 110.762 217.107 110.762Z" fill="#D9EEFF"/>
<path d="M188.053 112.521V99.404C188.053 98.766 188.227 98.139 188.555 97.591L193.338 89.619L195.1 86.096L198.107 83.089C198.438 82.758 198.885 82.573 199.352 82.573H205.299C205.563 82.573 205.81 82.468 205.986 82.274L214.759 72.761C215.604 71.845 217.031 71.739 218 72.532L229.716 82.045C229.927 82.221 230.103 82.432 230.209 82.679C230.314 82.908 230.367 83.155 230.367 83.419L230.332 83.523V87.858L236.872 91.312L246.134 89.638C246.149 89.633 246.166 89.636 246.183 89.633L246.187 89.62H249.71L255.71 92.238C256.745 92.698 257.083 94 256.406 94.905L255.067 96.579C255.049 96.632 255.014 96.702 254.979 96.755L248.126 108.752C248.058 108.875 248.023 109.012 248.013 109.156L251.318 117.416C251.422 117.676 251.494 117.948 251.535 118.226L253.159 129.594C253.208 129.95 253.15 130.311 252.99 130.632L251.836 132.938C251.605 133.397 251.186 133.734 250.687 133.859L237.379 137.185L225.84 145.659C225.593 145.835 225.329 145.941 225.047 145.976C224.747 146.029 224.448 145.993 224.166 145.87L217.116 142.847C216.542 142.601 215.911 142.511 215.291 142.59L202.938 144.133C202.417 144.198 201.886 144.146 201.386 143.98L196.86 142.47L196.873 142.457L196.721 142.381L194.061 141.06L193.885 140.972C193.727 140.884 193.568 140.796 193.427 140.673C193.409 140.691 193.409 140.673 193.409 140.673C193.251 140.567 193.092 140.426 192.969 140.303L192.863 140.197L186.503 133.837C186.309 133.678 186.133 133.52 185.957 133.379L179.615 128.869C179.439 128.746 179.333 128.57 179.28 128.376C179.21 128.147 179.245 127.883 179.368 127.654L184.195 120.202C184.316 119.978 184.488 119.789 184.71 119.649L184.688 119.638C184.846 119.514 185.04 119.444 185.234 119.391L191.499 117.825C191.449 117.662 191.376 117.505 191.28 117.362L188.053 112.521ZM188.053 112.521L188.117 112.432C188.12 112.444 188.119 112.457 188.122 112.469L188.053 112.521Z" stroke="#40396E" stroke-width="3" stroke-miterlimit="10" stroke-linecap="round" stroke-linejoin="round"/>
<rect x="149.5" y="119.5" width="43" height="28" rx="14" fill="white"/>
<rect x="149.5" y="119.5" width="43" height="28" rx="14" stroke="black" stroke-width="3"/>
<path d="M165.432 139.159C164.538 139.159 163.744 139.002 163.051 138.688C162.362 138.369 161.818 137.932 161.42 137.375C161.027 136.818 160.826 136.178 160.818 135.455H163.886C163.898 135.856 164.053 136.176 164.352 136.415C164.655 136.653 165.015 136.773 165.432 136.773C165.754 136.773 166.038 136.705 166.284 136.568C166.53 136.428 166.723 136.231 166.864 135.977C167.004 135.723 167.072 135.428 167.068 135.091C167.072 134.75 167.004 134.455 166.864 134.205C166.723 133.951 166.53 133.756 166.284 133.619C166.038 133.479 165.754 133.409 165.432 133.409C165.098 133.409 164.79 133.491 164.506 133.653C164.225 133.812 164.019 134.034 163.886 134.318L161.114 133.773L161.568 127.364H169.386V129.886H164.159L163.932 132.455H164C164.182 132.102 164.496 131.811 164.943 131.58C165.39 131.345 165.909 131.227 166.5 131.227C167.193 131.227 167.811 131.388 168.352 131.71C168.898 132.032 169.328 132.477 169.642 133.045C169.96 133.61 170.117 134.261 170.114 135C170.117 135.811 169.924 136.53 169.534 137.159C169.148 137.784 168.604 138.275 167.903 138.631C167.203 138.983 166.379 139.159 165.432 139.159ZM175.703 142.455C174.828 142.455 174.078 142.33 173.453 142.08C172.832 141.833 172.349 141.492 172.004 141.057C171.663 140.625 171.472 140.129 171.43 139.568H174.453C174.483 139.754 174.559 139.903 174.68 140.017C174.802 140.131 174.957 140.212 175.146 140.261C175.339 140.314 175.555 140.341 175.794 140.341C176.199 140.341 176.535 140.242 176.8 140.045C177.069 139.848 177.203 139.492 177.203 138.977V137.5H177.112C176.999 137.795 176.824 138.047 176.589 138.256C176.355 138.46 176.072 138.617 175.743 138.727C175.413 138.833 175.052 138.886 174.658 138.886C174.036 138.886 173.464 138.742 172.942 138.455C172.423 138.167 172.006 137.71 171.692 137.085C171.381 136.46 171.226 135.644 171.226 134.636C171.226 133.583 171.389 132.727 171.714 132.068C172.044 131.409 172.468 130.926 172.987 130.619C173.51 130.312 174.059 130.159 174.635 130.159C175.067 130.159 175.446 130.235 175.771 130.386C176.097 130.534 176.37 130.733 176.589 130.983C176.809 131.229 176.976 131.5 177.089 131.795H177.158V130.273H180.294V138.977C180.294 139.716 180.103 140.343 179.72 140.858C179.341 141.377 178.807 141.773 178.118 142.045C177.429 142.318 176.624 142.455 175.703 142.455ZM175.817 136.659C176.105 136.659 176.351 136.58 176.555 136.42C176.764 136.258 176.923 136.027 177.033 135.727C177.146 135.424 177.203 135.061 177.203 134.636C177.203 134.205 177.146 133.835 177.033 133.528C176.923 133.218 176.764 132.981 176.555 132.818C176.351 132.652 176.105 132.568 175.817 132.568C175.529 132.568 175.283 132.652 175.078 132.818C174.877 132.981 174.722 133.218 174.612 133.528C174.506 133.835 174.453 134.205 174.453 134.636C174.453 135.068 174.506 135.436 174.612 135.739C174.722 136.038 174.877 136.267 175.078 136.426C175.283 136.581 175.529 136.659 175.817 136.659Z" fill="black"/>
<path opacity="0.35" d="M35.5 98C29.159 98 24 92.841 24 86.5V63.5C24 60.826 25.128 58.337 27 56.576V53.424C25.128 51.663 24 49.174 24 46.5V39.753C24 28.522 29.937 19.874 39 17.015V10.5C39 6.916 41.916 4 45.5 4H58.5C62.084 4 65 6.916 65 10.5V17.015C74.063 19.874 80 28.522 80 39.753V46.5C80 49.174 78.872 51.663 77 53.424V56.576C78.872 58.337 80 60.826 80 63.5V86.5C80 92.841 74.841 98 68.5 98H35.5Z" fill="black"/>
<path d="M33.5 96C27.159 96 22 90.841 22 84.5V61.5C22 58.826 23.128 56.337 25 54.576V51.424C23.128 49.663 22 47.174 22 44.5V37.753C22 26.522 27.937 17.874 37 15.015V8.5C37 4.916 39.916 2 43.5 2H56.5C60.084 2 63 4.916 63 8.5V15.015C72.063 17.874 78 26.522 78 37.753V44.5C78 47.174 76.872 49.663 75 51.424V54.576C76.872 56.337 78 58.826 78 61.5V84.5C78 90.841 72.841 96 66.5 96H33.5Z" fill="#F2F2F2"/>
<path d="M68.5 47.5C70.157 47.5 71.5 46.157 71.5 44.5V37.753C71.5 28.224 65.776 20.5 56.247 20.5H55.5V15.5H57.5V8.5H42.5V15.5H44.5V20.5H43.753C34.225 20.5 28.5 28.224 28.5 37.753V44.5C28.5 46.157 29.843 47.5 31.5 47.5V58.5C29.843 58.5 28.5 59.843 28.5 61.5V84.5C28.5 87.261 30.739 89.5 33.5 89.5H66.5C69.261 89.5 71.5 87.261 71.5 84.5V61.5C71.5 59.843 70.157 58.5 68.5 58.5V47.5Z" fill="#70BFFF"/>
<path opacity="0.35" d="M69 46H31V49H69V46Z" fill="#40396E"/>
<path d="M43.753 20.5C35.515 20.5 30.129 26.278 28.819 34H71.181C69.871 26.278 64.485 20.5 56.247 20.5H55.5V15.5H57.5V8.5H42.5V15.5H44.5V20.5H43.753Z" fill="#D9EEFF"/>
<path opacity="0.35" d="M69 57H31V60H69V57Z" fill="#40396E"/>
<path d="M55 17H45L43 9H57L55 17Z" fill="#40396E"/>
<path d="M68.5 47.5C70.157 47.5 71.5 46.157 71.5 44.5V37.753C71.5 28.224 65.776 20.5 56.247 20.5H55.5V15.5H56.5V8.5H43.5V15.5H44.5V20.5H43.753C34.225 20.5 28.5 28.224 28.5 37.753V44.5C28.5 46.157 29.843 47.5 31.5 47.5V58.5C29.843 58.5 28.5 59.843 28.5 61.5V84.5C28.5 87.261 30.739 89.5 33.5 89.5H66.5C69.261 89.5 71.5 87.261 71.5 84.5V61.5C71.5 59.843 70.157 58.5 68.5 58.5V47.5Z" stroke="#40396E" stroke-width="3" stroke-miterlimit="10" stroke-linecap="round" stroke-linejoin="round"/>
<rect x="59.5" y="10.5" width="50" height="28" rx="14" fill="white"/>
<rect x="59.5" y="10.5" width="50" height="28" rx="14" stroke="black" stroke-width="3"/>
<path d="M76.4773 18.3636V30H73.3182V21.2727H73.25L70.7045 22.7955V20.1136L73.5682 18.3636H76.4773ZM78.8665 30V27.7273L83.2074 24.1364C83.4953 23.8977 83.7415 23.6742 83.946 23.4659C84.1544 23.2538 84.3134 23.036 84.4233 22.8125C84.5369 22.589 84.5938 22.3409 84.5938 22.0682C84.5938 21.7689 84.5294 21.5133 84.4006 21.3011C84.2756 21.089 84.1013 20.9261 83.8778 20.8125C83.6544 20.6951 83.3968 20.6364 83.1051 20.6364C82.8134 20.6364 82.5559 20.6951 82.3324 20.8125C82.1127 20.9299 81.9422 21.1023 81.821 21.3295C81.6998 21.5568 81.6392 21.8333 81.6392 22.1591H78.6392C78.6392 21.3409 78.8229 20.6364 79.1903 20.0455C79.5578 19.4545 80.0767 19 80.7472 18.6818C81.4176 18.3636 82.2036 18.2045 83.1051 18.2045C84.0369 18.2045 84.8438 18.3542 85.5256 18.6534C86.2112 18.9489 86.7396 19.3655 87.1108 19.9034C87.4858 20.4413 87.6733 21.072 87.6733 21.7955C87.6733 22.2424 87.5805 22.6875 87.3949 23.1307C87.2093 23.5701 86.8759 24.0568 86.3949 24.5909C85.9138 25.125 85.2301 25.7614 84.3438 26.5L83.2528 27.4091V27.4773H87.7983V30H78.8665ZM93.4375 33.4545C92.5625 33.4545 91.8125 33.3295 91.1875 33.0795C90.5663 32.8333 90.0833 32.4924 89.7386 32.0568C89.3977 31.625 89.2064 31.1288 89.1648 30.5682H92.1875C92.2178 30.7538 92.2936 30.9034 92.4148 31.017C92.536 31.1307 92.6913 31.2121 92.8807 31.2614C93.0739 31.3144 93.2898 31.3409 93.5284 31.3409C93.9337 31.3409 94.2689 31.2424 94.5341 31.0455C94.803 30.8485 94.9375 30.4924 94.9375 29.9773V28.5H94.8466C94.733 28.7955 94.5587 29.0473 94.3239 29.2557C94.089 29.4602 93.8068 29.6174 93.4773 29.7273C93.1477 29.8333 92.786 29.8864 92.392 29.8864C91.7708 29.8864 91.1989 29.7424 90.6761 29.4545C90.1572 29.1667 89.7405 28.7102 89.4261 28.0852C89.1155 27.4602 88.9602 26.6439 88.9602 25.6364C88.9602 24.5833 89.1231 23.7273 89.4489 23.0682C89.7784 22.4091 90.2027 21.9261 90.7216 21.6193C91.2443 21.3125 91.7936 21.1591 92.3693 21.1591C92.8011 21.1591 93.1799 21.2348 93.5057 21.3864C93.8314 21.5341 94.1042 21.733 94.3239 21.983C94.5436 22.2292 94.7102 22.5 94.8239 22.7955H94.892V21.2727H98.0284V29.9773C98.0284 30.7159 97.8371 31.3428 97.4545 31.858C97.0758 32.3769 96.5417 32.7727 95.8523 33.0455C95.1629 33.3182 94.358 33.4545 93.4375 33.4545ZM93.5511 27.6591C93.839 27.6591 94.0852 27.5795 94.2898 27.4205C94.4981 27.2576 94.6572 27.0265 94.767 26.7273C94.8807 26.4242 94.9375 26.0606 94.9375 25.6364C94.9375 25.2045 94.8807 24.8352 94.767 24.5284C94.6572 24.2178 94.4981 23.9811 94.2898 23.8182C94.0852 23.6515 93.839 23.5682 93.5511 23.5682C93.2633 23.5682 93.017 23.6515 92.8125 23.8182C92.6117 23.9811 92.4564 24.2178 92.3466 24.5284C92.2405 24.8352 92.1875 25.2045 92.1875 25.6364C92.1875 26.0682 92.2405 26.4356 92.3466 26.7386C92.4564 27.0379 92.6117 27.267 92.8125 27.4261C93.017 27.5814 93.2633 27.6591 93.5511 27.6591Z" fill="black"/>
<path opacity="0.35" d="M104.5 217C101.3 217 98 216 95 214.3C92 216 88.7 217 85.5 217C79 217 75.3 214.8 72.5 212.6C70 210.6 67.5 208.3 65.4 205.7C63.2 203.1 63.4 199.2 65.9 196.8C66 196.7 66.1 196.6 66.1 196.4C66.1 196.3 66.1 196.2 66 196.1C64.6 194.6 63.9 192.5 64.3 190.5C64.7 188.5 66 186.7 67.9 185.8C68.1 185.7 68.1 185.6 68.1 185.5C68.1 185.3 68 185.2 67.8 185.2C66.1 184.8 69.4 182.6 68.5 181.1C67.6 179.6 62.6 178.9 63 177.2C63.1 177 63.1 176.7 63.1 176.5C63.1 175.3 63.9 171.2 62.7 171.1C60.7 170.8 58.9 170.2 57.9 168.5C56.9 166.8 55 167.3 55.7 165.4C58.7 157.2 65.6 151.2 74 149C72.5 143.8 73.4 139.1 73.5 138.3C74.1 135.3 76.8 133.1 79.9 133.1H80H80.2C87.3 133.5 92.8 136 96.5 140.5C97.5 139.7 98.5 139 99.6 138.3C100.6 137.7 101.7 137.4 102.8 137.4C105.1 137.4 107.3 138.7 108.4 140.7C109.8 143.1 109.4 146 107.8 148.1C108.2 148.1 108.7 148.1 109.1 148.1C124 148 136 159.7 136 174.1C136 195.9 123.1 208.3 117.5 212.7C114.7 214.8 111 217 104.5 217Z" fill="black"/>
<path d="M102.5 215C99.3 215 96 214 93 212.3C90 214 86.7 215 83.5 215C77 215 73.3 212.8 70.5 210.6C68 208.6 65.5 206.3 63.4 203.7C61.2 201.1 61.4 197.2 63.9 194.8C64 194.7 64.1 194.6 64.1 194.4C64.1 194.3 64.1 194.2 64 194.1C62.6 192.6 61.9 190.5 62.3 188.5C62.7 186.5 64 184.7 65.9 183.8C66.1 183.7 66.1 183.6 66.1 183.5C66.1 183.3 66 183.2 65.8 183.2C64.1 182.8 62.6 181.7 61.7 180.2C60.8 178.7 60.6 176.9 61 175.2C61.1 175 61.1 174.7 61.1 174.5C61.1 173.3 60.2 172.2 58.9 172C56.9 171.7 55.2 170.6 54.2 168.9C53.2 167.2 53 165.2 53.7 163.3C56.7 155.1 63.6 149.1 72 146.9C70.5 141.7 71.4 137 71.5 136.2C72.1 133.2 74.8 131 77.9 131H78H78.2C85.3 131.4 90.8 133.9 94.5 138.4C95.5 137.6 96.5 136.9 97.6 136.2C98.6 135.6 99.7 135.3 100.8 135.3C103.1 135.3 105.3 136.6 106.4 138.6C107.8 141 107.4 143.9 105.8 146C106.2 146 106.7 146 107.1 146C122 146 134 157.7 134 172.1C134 193.9 121.1 206.3 115.5 210.7C112.7 212.8 109 215 102.5 215Z" fill="#F2F2F2"/>
<path d="M93.8 158.8C93.1 158.8 92.5 158.3 92.3 157.6C92.1 156.6 92 155.6 92 154.5C92 148.8 95.1 143.5 100.1 140.6C100.8 140.2 101.7 140.4 102.1 141.2C102.5 141.9 102.3 142.8 101.5 143.2C97.5 145.5 94.9 149.8 94.9 154.5C94.9 155.3 95 156.2 95.1 157C95.3 157.8 94.7 158.6 93.9 158.8C94 158.8 93.9 158.8 93.8 158.8Z" fill="#40396E"/>
<path d="M92.5 154.4C92.5 154.4 94.9 138.4 77.8 137.5C77.7 137.5 74.5 154.2 92.5 154.4Z" fill="#96C362"/>
<path d="M92.2 154L78.2 138H83.9L89.1 141.3L92.3 147.5L93.1 153.3L92.2 154Z" fill="#739F4D"/>
<path d="M92.5 155.9C86.5 155.8 82.1 154 79.3 150.6C74.8 145.1 76.3 137.5 76.3 137.2C76.4 136.5 77.1 136 77.8 136C83.4 136.3 87.7 138.2 90.5 141.6C95 147 94 154.3 94 154.6C93.8 155.4 93.2 155.9 92.5 155.9ZM79.1 139.1C78.9 141.2 79 145.5 81.6 148.7C83.6 151.2 86.8 152.6 91.1 152.8C91.1 150.7 90.8 146.6 88.2 143.4C86.2 141 83.1 139.5 79.1 139.1Z" fill="#40396E"/>
<path d="M107.2 152.5C101.5 152.5 96.7 154.8 93 158.4C89.3 154.8 84.5 152.5 78.8 152.5C69.9 152.5 62.4 158 59.6 165.6C64 166.2 67.4 169.9 67.4 174.5C67.4 175.3 67.3 176.1 67.1 176.8C70.1 177.5 72.3 180.2 72.3 183.5C72.3 186.2 70.7 188.6 68.4 189.7C69.6 191 70.3 192.7 70.3 194.5C70.3 196.5 69.5 198.3 68.2 199.5C70.9 202.7 73.3 204.7 74.3 205.5C76.5 207.3 78.9 208.5 83.3 208.5C87 208.5 90.5 206.6 92.8 204.1C95.1 206.6 98.6 208.5 102.3 208.5C106.7 208.5 109.1 207.3 111.3 205.5C114.1 203.3 127.3 192.5 127.3 172.1C127.5 161.3 118.4 152.5 107.2 152.5Z" fill="#F4665C" stroke="#40396E" stroke-width="3" stroke-miterlimit="10" stroke-linecap="round" stroke-linejoin="round"/>
<rect x="109.5" y="176.5" width="54" height="28" rx="14" fill="white"/>
<rect x="109.5" y="176.5" width="54" height="28" rx="14" stroke="black" stroke-width="3"/>
<path d="M125.318 184.205C125.996 184.205 126.638 184.312 127.244 184.528C127.85 184.741 128.386 185.076 128.852 185.534C129.322 185.992 129.689 186.591 129.955 187.33C130.223 188.064 130.36 188.955 130.364 190C130.367 190.955 130.248 191.812 130.006 192.574C129.767 193.331 129.424 193.977 128.977 194.511C128.534 195.045 128 195.455 127.375 195.739C126.754 196.019 126.061 196.159 125.295 196.159C124.436 196.159 123.68 195.994 123.028 195.665C122.377 195.335 121.858 194.892 121.472 194.335C121.085 193.778 120.86 193.159 120.795 192.477H123.909C123.985 192.83 124.152 193.085 124.409 193.244C124.667 193.4 124.962 193.477 125.295 193.477C125.962 193.477 126.449 193.189 126.756 192.614C127.066 192.034 127.223 191.261 127.227 190.295H127.159C127.011 190.652 126.788 190.956 126.489 191.21C126.189 191.464 125.841 191.659 125.443 191.795C125.045 191.932 124.625 192 124.182 192C123.481 192 122.867 191.843 122.341 191.528C121.814 191.21 121.403 190.777 121.108 190.227C120.813 189.674 120.663 189.045 120.659 188.341C120.655 187.515 120.85 186.792 121.244 186.17C121.638 185.549 122.186 185.066 122.886 184.722C123.587 184.377 124.398 184.205 125.318 184.205ZM125.341 186.591C125.027 186.591 124.746 186.663 124.5 186.807C124.258 186.951 124.066 187.146 123.926 187.392C123.79 187.638 123.723 187.917 123.727 188.227C123.731 188.538 123.801 188.816 123.938 189.062C124.078 189.309 124.267 189.504 124.506 189.648C124.748 189.792 125.027 189.864 125.341 189.864C125.572 189.864 125.786 189.824 125.983 189.744C126.18 189.661 126.35 189.545 126.494 189.398C126.642 189.246 126.756 189.072 126.835 188.875C126.919 188.674 126.958 188.458 126.955 188.227C126.951 187.917 126.879 187.638 126.739 187.392C126.598 187.146 126.407 186.951 126.165 186.807C125.922 186.663 125.648 186.591 125.341 186.591ZM136.385 196.159C135.491 196.159 134.697 196.002 134.004 195.688C133.315 195.369 132.771 194.932 132.374 194.375C131.98 193.818 131.779 193.178 131.771 192.455H134.839C134.851 192.856 135.006 193.176 135.305 193.415C135.608 193.653 135.968 193.773 136.385 193.773C136.707 193.773 136.991 193.705 137.237 193.568C137.483 193.428 137.677 193.231 137.817 192.977C137.957 192.723 138.025 192.428 138.021 192.091C138.025 191.75 137.957 191.455 137.817 191.205C137.677 190.951 137.483 190.756 137.237 190.619C136.991 190.479 136.707 190.409 136.385 190.409C136.052 190.409 135.743 190.491 135.459 190.653C135.179 190.812 134.972 191.034 134.839 191.318L132.067 190.773L132.521 184.364H140.339V186.886H135.112L134.885 189.455H134.953C135.135 189.102 135.449 188.811 135.896 188.58C136.343 188.345 136.862 188.227 137.453 188.227C138.146 188.227 138.764 188.388 139.305 188.71C139.851 189.032 140.281 189.477 140.595 190.045C140.913 190.61 141.071 191.261 141.067 192C141.071 192.811 140.877 193.53 140.487 194.159C140.101 194.784 139.557 195.275 138.857 195.631C138.156 195.983 137.332 196.159 136.385 196.159ZM146.656 199.455C145.781 199.455 145.031 199.33 144.406 199.08C143.785 198.833 143.302 198.492 142.957 198.057C142.616 197.625 142.425 197.129 142.384 196.568H145.406C145.437 196.754 145.512 196.903 145.634 197.017C145.755 197.131 145.91 197.212 146.099 197.261C146.293 197.314 146.509 197.341 146.747 197.341C147.152 197.341 147.488 197.242 147.753 197.045C148.022 196.848 148.156 196.492 148.156 195.977V194.5H148.065C147.952 194.795 147.777 195.047 147.543 195.256C147.308 195.46 147.026 195.617 146.696 195.727C146.366 195.833 146.005 195.886 145.611 195.886C144.99 195.886 144.418 195.742 143.895 195.455C143.376 195.167 142.959 194.71 142.645 194.085C142.334 193.46 142.179 192.644 142.179 191.636C142.179 190.583 142.342 189.727 142.668 189.068C142.997 188.409 143.421 187.926 143.94 187.619C144.463 187.312 145.012 187.159 145.588 187.159C146.02 187.159 146.399 187.235 146.724 187.386C147.05 187.534 147.323 187.733 147.543 187.983C147.762 188.229 147.929 188.5 148.043 188.795H148.111V187.273H151.247V195.977C151.247 196.716 151.056 197.343 150.673 197.858C150.295 198.377 149.76 198.773 149.071 199.045C148.382 199.318 147.577 199.455 146.656 199.455ZM146.77 193.659C147.058 193.659 147.304 193.58 147.509 193.42C147.717 193.258 147.876 193.027 147.986 192.727C148.099 192.424 148.156 192.061 148.156 191.636C148.156 191.205 148.099 190.835 147.986 190.528C147.876 190.218 147.717 189.981 147.509 189.818C147.304 189.652 147.058 189.568 146.77 189.568C146.482 189.568 146.236 189.652 146.031 189.818C145.83 189.981 145.675 190.218 145.565 190.528C145.459 190.835 145.406 191.205 145.406 191.636C145.406 192.068 145.459 192.436 145.565 192.739C145.675 193.038 145.83 193.267 146.031 193.426C146.236 193.581 146.482 193.659 146.77 193.659Z" fill="black"/>
<path opacity="0.35" d="M186.043 294.603C183.315 294.603 180.752 293.542 178.825 291.616L169.461 282.252C165.482 278.272 165.482 271.797 169.461 267.817C171.345 265.933 173.836 264.876 176.493 264.829C178.937 261.283 183.16 255.825 190.169 248.416C187.895 238.454 190.883 227.768 198.186 220.466L214.744 203.907C215.97 202.68 217.603 202.003 219.341 202.003C220.514 202.003 221.667 202.321 222.674 202.923C225.23 204.447 226.422 207.509 225.568 210.365L224.007 215.58C225.361 215.795 226.637 216.438 227.61 217.417C229.017 218.83 229.704 220.858 229.446 222.84L229.2 224.719L234.825 223.219C235.367 223.074 235.933 223 236.5 223C238.158 223 239.737 223.625 240.947 224.76C242.598 226.311 243.318 228.56 242.872 230.779L242.106 234.607L253.791 233.372C254.047 233.347 254.258 233.337 254.468 233.337C256.965 233.337 259.271 234.791 260.342 237.041C261.525 239.517 261.015 242.49 259.069 244.435L240.611 262.892C234.947 268.557 227.41 271.676 219.39 271.676C217.116 271.676 214.861 271.42 212.658 270.911C205.251 277.918 199.795 282.14 196.249 284.583C196.202 287.24 195.145 289.73 193.261 291.615C191.333 293.542 188.771 294.603 186.043 294.603Z" fill="black"/>
<path d="M184.043 292.603C181.315 292.603 178.752 291.542 176.825 289.616L167.461 280.252C163.482 276.272 163.482 269.797 167.461 265.817C169.345 263.933 171.836 262.876 174.493 262.829C176.937 259.283 181.16 253.825 188.169 246.416C185.895 236.454 188.883 225.768 196.186 218.466L212.744 201.907C213.97 200.68 215.603 200.003 217.341 200.003C218.514 200.003 219.667 200.321 220.674 200.923C223.23 202.447 224.422 205.509 223.568 208.365L222.007 213.58C223.361 213.795 224.637 214.438 225.61 215.417C227.017 216.83 227.704 218.858 227.446 220.84L227.2 222.719L232.825 221.219C233.367 221.074 233.933 221 234.5 221C236.158 221 237.737 221.625 238.947 222.76C240.598 224.311 241.318 226.56 240.872 228.779L240.106 232.607L251.791 231.372C252.047 231.347 252.258 231.337 252.468 231.337C254.965 231.337 257.271 232.791 258.342 235.041C259.525 237.517 259.015 240.49 257.069 242.435L238.611 260.892C232.947 266.557 225.41 269.676 217.39 269.676C215.116 269.676 212.861 269.42 210.658 268.911C203.251 275.918 197.795 280.14 194.249 282.583C194.202 285.24 193.145 287.73 191.261 289.615C189.333 291.542 186.771 292.603 184.043 292.603Z" fill="#F2F2F2"/>
<path d="M217.34 206.503L200.781 223.061C193.99 229.852 192.23 239.764 195.49 248.179C180.91 263.105 177.386 270.498 177.386 270.498L176.679 269.791C175.507 268.619 173.608 268.619 172.436 269.791C171.264 270.963 170.264 273.862 171.436 275.034L182.043 285.64C183.215 286.812 186.114 285.812 187.286 284.64C188.458 283.468 188.458 281.569 187.286 280.397L186.579 279.69C186.579 279.69 193.972 276.166 208.898 261.586C217.313 264.846 227.225 263.086 234.016 256.295L252.476 237.835L232 240L234.5 227.5L219.5 231.5L221 220L213 221L217.34 206.503Z" fill="#96C362"/>
<path d="M175.863 271.107L185.511 280.755L188 283L183 287L171 273L175 269L175.863 271.107Z" fill="#739F4D"/>
<path d="M215 211L207 229L214 230L213 240H224L227 249L248.708 239.831L231.112 240.64L234.5 227.5L220.258 231.371L219.978 220.128L213 221.427L216 210L215 211Z" fill="#407845"/>
<path d="M217.34 206.503L200.781 223.061C193.99 229.852 192.23 239.764 195.49 248.179C180.91 263.105 177.386 270.498 177.386 270.498L177.3 270.413C175.852 268.965 173.505 268.965 172.057 270.413C170.609 271.861 170.609 274.208 172.057 275.656L181.421 285.02C182.869 286.468 185.216 286.468 186.664 285.02C188.112 283.572 188.112 281.225 186.664 279.777L186.578 279.691C186.578 279.691 193.971 276.167 208.897 261.587C217.312 264.847 227.224 263.087 234.015 256.296L252.475 237.836L232 240L234.5 227.5L219.5 231.5L221 220L214.5 221.5L217.34 206.503Z" stroke="#40396E" stroke-width="3" stroke-miterlimit="10" stroke-linecap="round" stroke-linejoin="round"/>
<rect x="199.5" y="253.5" width="66" height="28" rx="14" fill="white"/>
<rect x="199.5" y="253.5" width="66" height="28" rx="14" stroke="black" stroke-width="3"/>
<path d="M210.773 273V270.727L215.114 267.136C215.402 266.898 215.648 266.674 215.852 266.466C216.061 266.254 216.22 266.036 216.33 265.812C216.443 265.589 216.5 265.341 216.5 265.068C216.5 264.769 216.436 264.513 216.307 264.301C216.182 264.089 216.008 263.926 215.784 263.812C215.561 263.695 215.303 263.636 215.011 263.636C214.72 263.636 214.462 263.695 214.239 263.812C214.019 263.93 213.848 264.102 213.727 264.33C213.606 264.557 213.545 264.833 213.545 265.159H210.545C210.545 264.341 210.729 263.636 211.097 263.045C211.464 262.455 211.983 262 212.653 261.682C213.324 261.364 214.11 261.205 215.011 261.205C215.943 261.205 216.75 261.354 217.432 261.653C218.117 261.949 218.646 262.366 219.017 262.903C219.392 263.441 219.58 264.072 219.58 264.795C219.58 265.242 219.487 265.687 219.301 266.131C219.116 266.57 218.782 267.057 218.301 267.591C217.82 268.125 217.136 268.761 216.25 269.5L215.159 270.409V270.477H219.705V273H210.773ZM226.185 273.318C225.128 273.314 224.215 273.07 223.446 272.585C222.677 272.1 222.084 271.402 221.668 270.489C221.251 269.576 221.045 268.481 221.048 267.205C221.052 265.924 221.26 264.837 221.673 263.943C222.09 263.049 222.681 262.369 223.446 261.903C224.215 261.437 225.128 261.205 226.185 261.205C227.241 261.205 228.154 261.439 228.923 261.909C229.692 262.375 230.285 263.055 230.702 263.949C231.118 264.843 231.325 265.928 231.321 267.205C231.321 268.489 231.113 269.587 230.696 270.5C230.279 271.413 229.687 272.112 228.918 272.597C228.152 273.078 227.241 273.318 226.185 273.318ZM226.185 270.75C226.73 270.75 227.177 270.466 227.526 269.898C227.878 269.326 228.052 268.428 228.048 267.205C228.048 266.405 227.969 265.752 227.81 265.244C227.651 264.737 227.431 264.362 227.151 264.119C226.87 263.873 226.548 263.75 226.185 263.75C225.639 263.75 225.194 264.027 224.849 264.58C224.505 265.133 224.329 266.008 224.321 267.205C224.317 268.019 224.395 268.689 224.554 269.216C224.713 269.739 224.933 270.125 225.213 270.375C225.497 270.625 225.821 270.75 226.185 270.75ZM237.872 273.318C236.815 273.314 235.902 273.07 235.134 272.585C234.365 272.1 233.772 271.402 233.355 270.489C232.938 269.576 232.732 268.481 232.736 267.205C232.74 265.924 232.948 264.837 233.361 263.943C233.777 263.049 234.368 262.369 235.134 261.903C235.902 261.437 236.815 261.205 237.872 261.205C238.929 261.205 239.842 261.439 240.611 261.909C241.38 262.375 241.973 263.055 242.389 263.949C242.806 264.843 243.012 265.928 243.009 267.205C243.009 268.489 242.8 269.587 242.384 270.5C241.967 271.413 241.374 272.112 240.605 272.597C239.84 273.078 238.929 273.318 237.872 273.318ZM237.872 270.75C238.418 270.75 238.865 270.466 239.213 269.898C239.565 269.326 239.74 268.428 239.736 267.205C239.736 266.405 239.656 265.752 239.497 265.244C239.338 264.737 239.118 264.362 238.838 264.119C238.558 263.873 238.236 263.75 237.872 263.75C237.327 263.75 236.882 264.027 236.537 264.58C236.192 265.133 236.016 266.008 236.009 267.205C236.005 268.019 236.082 268.689 236.241 269.216C236.401 269.739 236.62 270.125 236.901 270.375C237.185 270.625 237.509 270.75 237.872 270.75ZM248.719 276.455C247.844 276.455 247.094 276.33 246.469 276.08C245.848 275.833 245.365 275.492 245.02 275.057C244.679 274.625 244.488 274.129 244.446 273.568H247.469C247.499 273.754 247.575 273.903 247.696 274.017C247.817 274.131 247.973 274.212 248.162 274.261C248.355 274.314 248.571 274.341 248.81 274.341C249.215 274.341 249.55 274.242 249.815 274.045C250.084 273.848 250.219 273.492 250.219 272.977V271.5H250.128C250.014 271.795 249.84 272.047 249.605 272.256C249.37 272.46 249.088 272.617 248.759 272.727C248.429 272.833 248.067 272.886 247.673 272.886C247.052 272.886 246.48 272.742 245.957 272.455C245.438 272.167 245.022 271.71 244.707 271.085C244.397 270.46 244.241 269.644 244.241 268.636C244.241 267.583 244.404 266.727 244.73 266.068C245.06 265.409 245.484 264.926 246.003 264.619C246.526 264.312 247.075 264.159 247.651 264.159C248.082 264.159 248.461 264.235 248.787 264.386C249.113 264.534 249.385 264.733 249.605 264.983C249.825 265.229 249.991 265.5 250.105 265.795H250.173V264.273H253.31V272.977C253.31 273.716 253.118 274.343 252.736 274.858C252.357 275.377 251.823 275.773 251.134 276.045C250.444 276.318 249.639 276.455 248.719 276.455ZM248.832 270.659C249.12 270.659 249.366 270.58 249.571 270.42C249.779 270.258 249.938 270.027 250.048 269.727C250.162 269.424 250.219 269.061 250.219 268.636C250.219 268.205 250.162 267.835 250.048 267.528C249.938 267.218 249.779 266.981 249.571 266.818C249.366 266.652 249.12 266.568 248.832 266.568C248.545 266.568 248.298 266.652 248.094 266.818C247.893 266.981 247.738 267.218 247.628 267.528C247.522 267.835 247.469 268.205 247.469 268.636C247.469 269.068 247.522 269.436 247.628 269.739C247.738 270.038 247.893 270.267 248.094 270.426C248.298 270.581 248.545 270.659 248.832 270.659Z" fill="black"/>
</svg>
