<svg width="100" height="100" viewBox="0 0 100 100" fill="none" xmlns="http://www.w3.org/2000/svg">
<path opacity="0.35" d="M23.0431 97.603C20.3151 97.603 17.7521 96.542 15.8251 94.616L6.46106 85.252C2.48206 81.272 2.48206 74.797 6.46106 70.817C8.34506 68.933 10.8361 67.876 13.4931 67.829C15.9371 64.283 20.1601 58.825 27.1691 51.416C24.8951 41.454 27.8831 30.768 35.1861 23.466L51.7441 6.90699C52.9701 5.67999 54.6031 5.00299 56.3411 5.00299C57.5141 5.00299 58.6671 5.32099 59.6741 5.92299C62.2301 7.44699 63.4221 10.509 62.5681 13.365L61.0071 18.58C62.3611 18.795 63.6371 19.438 64.6101 20.417C66.0171 21.83 66.7041 23.858 66.4461 25.84L66.2001 27.719L71.8251 26.219C72.3671 26.074 72.9331 26 73.5001 26C75.1581 26 76.7371 26.625 77.9471 27.76C79.5981 29.311 80.3181 31.56 79.8721 33.779L79.1061 37.607L90.7911 36.372C91.0471 36.347 91.2581 36.337 91.4681 36.337C93.9651 36.337 96.2711 37.791 97.3421 40.041C98.5251 42.517 98.0151 45.49 96.0691 47.435L77.6111 65.892C71.9471 71.557 64.4101 74.676 56.3901 74.676C54.1161 74.676 51.8611 74.42 49.6581 73.911C42.2511 80.918 36.7951 85.14 33.2491 87.583C33.2021 90.24 32.1451 92.73 30.2611 94.615C28.3331 96.542 25.7711 97.603 23.0431 97.603Z" fill="black"/>
<path d="M21.0431 95.603C18.3151 95.603 15.7521 94.542 13.8251 92.616L4.46106 83.252C0.482057 79.272 0.482057 72.797 4.46106 68.817C6.34506 66.933 8.83606 65.876 11.4931 65.829C13.9371 62.283 18.1601 56.825 25.1691 49.416C22.8951 39.454 25.8831 28.768 33.1861 21.466L49.7441 4.90699C50.9701 3.67999 52.6031 3.00299 54.3411 3.00299C55.5141 3.00299 56.6671 3.32099 57.6741 3.92299C60.2301 5.44699 61.4221 8.50899 60.5681 11.365L59.0071 16.58C60.3611 16.795 61.6371 17.438 62.6101 18.417C64.0171 19.83 64.7041 21.858 64.4461 23.84L64.2001 25.719L69.8251 24.219C70.3671 24.074 70.9331 24 71.5001 24C73.1581 24 74.7371 24.625 75.9471 25.76C77.5981 27.311 78.3181 29.56 77.8721 31.779L77.1061 35.607L88.7911 34.372C89.0471 34.347 89.2581 34.337 89.4681 34.337C91.9651 34.337 94.2711 35.791 95.3421 38.041C96.5251 40.517 96.0151 43.49 94.0691 45.435L75.6111 63.892C69.9471 69.557 62.4101 72.676 54.3901 72.676C52.1161 72.676 49.8611 72.42 47.6581 71.911C40.2511 78.918 34.7951 83.14 31.2491 85.583C31.2021 88.24 30.1451 90.73 28.2611 92.615C26.3331 94.542 23.7711 95.603 21.0431 95.603Z" fill="#F2F2F2"/>
<path d="M54.34 9.50299L37.781 26.061C30.99 32.852 29.23 42.764 32.49 51.179C17.91 66.105 14.386 73.498 14.386 73.498L13.679 72.791C12.507 71.619 10.608 71.619 9.43598 72.791C8.26398 73.963 7.26398 76.862 8.43598 78.034L19.043 88.64C20.215 89.812 23.114 88.812 24.286 87.64C25.458 86.468 25.458 84.569 24.286 83.397L23.579 82.69C23.579 82.69 30.972 79.166 45.898 64.586C54.313 67.846 64.225 66.086 71.016 59.295L89.476 40.835L69 43L71.5 30.5L56.5 34.5L58 23L50 24L54.34 9.50299Z" fill="#96C362"/>
<path d="M12.863 74.107L22.511 83.755L25 86L20 90L8 76L12 72L12.863 74.107Z" fill="#739F4D"/>
<path d="M52 14L44 32L51 33L50 43H61L64 52L85.708 42.831L68.112 43.64L71.5 30.5L57.258 34.371L56.978 23.128L50 24.427L53 13L52 14Z" fill="#407845"/>
<path d="M54.3399 9.50299L37.7809 26.061C30.9899 32.852 29.2299 42.764 32.4899 51.179C17.9099 66.105 14.3859 73.498 14.3859 73.498L14.2999 73.413C12.8519 71.965 10.5049 71.965 9.05695 73.413C7.60895 74.861 7.60895 77.208 9.05695 78.656L18.4209 88.02C19.8689 89.468 22.2159 89.468 23.6639 88.02C25.1119 86.572 25.1119 84.225 23.6639 82.777L23.5779 82.691C23.5779 82.691 30.9709 79.167 45.8969 64.587C54.3119 67.847 64.2239 66.087 71.0149 59.296L89.4749 40.836L68.9999 43L71.4999 30.5L56.4999 34.5L57.9999 23L51.4999 24.5L54.3399 9.50299Z" stroke="#40396E" stroke-width="3" stroke-miterlimit="10" stroke-linecap="round" stroke-linejoin="round"/>
</svg>
