<svg xmlns="http://www.w3.org/2000/svg"  viewBox="0 0 100 100" width="100px" height="100px" baseProfile="basic"><path d="M33.5,94h37c3.584,0,6.5-2.916,6.5-6.5v-3.67l3.99-39.141l0.207-0.448	c0.313-0.676,0.506-1.394,0.574-2.134l0.685-7.46l0.188-0.407c0.315-0.678,0.51-1.4,0.577-2.143l0.529-5.722	C85.786,24.519,87,21.86,87,19c0-5.514-4.486-10-10-10H27c-5.514,0-10,4.486-10,10c0,2.86,1.214,5.519,3.249,7.376l0.528,5.717	c0.068,0.747,0.263,1.47,0.573,2.137l0.193,0.418l0.685,7.46c0.068,0.74,0.262,1.458,0.574,2.134l0.207,0.448L27,83.83v3.67	C27,91.084,29.916,94,33.5,94z" opacity=".35"/><path fill="#f2f2f2" d="M31.5,92h37c3.584,0,6.5-2.916,6.5-6.5v-3.67l3.99-39.141l0.207-0.448	c0.313-0.676,0.506-1.394,0.574-2.134l0.685-7.46l0.188-0.407c0.315-0.678,0.51-1.4,0.577-2.143l0.529-5.722	C83.786,22.519,85,19.86,85,17c0-5.514-4.486-10-10-10H25c-5.514,0-10,4.486-10,10c0,2.86,1.214,5.519,3.249,7.376l0.528,5.717	c0.068,0.747,0.263,1.47,0.573,2.137l0.193,0.418l0.685,7.46c0.068,0.74,0.262,1.458,0.574,2.134l0.207,0.448L25,81.83v3.67	C25,89.084,27.916,92,31.5,92z"/><path fill="#de5147" d="M75,13.5H25c-1.933,0-3.5,1.567-3.5,3.5c0,1.732,1.261,3.16,2.913,3.441L25.25,29.5l0.664,1.436	l0.788,8.577l0.664,1.436L31.5,81.5v4h37v-4l4.134-40.551l0.664-1.436l0.788-8.577L74.75,29.5l0.837-9.059	C77.239,20.16,78.5,18.732,78.5,17C78.5,15.067,76.933,13.5,75,13.5z"/><rect width="51" height="3" x="24.5" y="19" fill="#40396e" opacity=".35"/><path fill="#ffe8d9" d="M21.5,16.25L21.5,16.25c0,1.519,1.231,2.75,2.75,2.75h51.5c1.519,0,2.75-1.231,2.75-2.75v0	c0-1.519-1.231-2.75-2.75-2.75h-51.5C22.731,13.5,21.5,14.731,21.5,16.25z"/><polygon fill="#f4665c" points="25.203,28.995 25.25,29.5 25.914,30.936 26.654,38.995 73.346,38.995 74.086,30.936 74.75,29.5 74.797,28.995"/><polygon fill="#f4665c" points="30.939,75.995 31.5,81.5 31.5,85.5 68.5,85.5 68.5,81.5 69.061,75.995"/><path fill="#40396e" d="M68.5,87h-37c-0.828,0-1.5-0.672-1.5-1.5v-3.924l-4.101-40.226l-0.559-1.208	c-0.072-0.156-0.117-0.322-0.133-0.492l-0.764-8.32l-0.556-1.2c-0.072-0.155-0.116-0.321-0.132-0.492l-0.745-8.058	C21.214,20.808,20,19.034,20,17c0-2.757,2.243-5,5-5h50c2.757,0,5,2.243,5,5c0,2.033-1.214,3.808-3.012,4.58l-0.745,8.058	c-0.016,0.171-0.06,0.337-0.132,0.492l-0.556,1.2l-0.764,8.32c-0.016,0.17-0.061,0.336-0.133,0.492l-0.559,1.208L70,81.577V85.5	C70,86.329,69.328,87,68.5,87z M33,84h34v-2.5c0-0.051,0.003-0.102,0.008-0.152l4.134-40.551c0.017-0.165,0.061-0.326,0.131-0.478	l0.556-1.201l0.764-8.32c0.016-0.17,0.061-0.337,0.133-0.492l0.556-1.201l0.813-8.802c0.063-0.677,0.572-1.228,1.242-1.341	C76.3,18.798,77,17.973,77,17c0-1.103-0.897-2-2-2H25c-1.103,0-2,0.897-2,2c0,0.973,0.7,1.798,1.664,1.962	c0.67,0.113,1.18,0.664,1.242,1.341l0.813,8.802l0.556,1.201c0.072,0.155,0.117,0.322,0.133,0.492l0.764,8.32l0.556,1.201	c0.07,0.151,0.114,0.313,0.131,0.478l4.134,40.551C32.997,81.399,33,81.45,33,81.5V84z M74.75,29.5h0.01H74.75z"/></svg>