<svg width="48" height="48" viewBox="0 0 48 48" fill="none" xmlns="http://www.w3.org/2000/svg">
<path d="M11 24.6168C11 21.9012 11 20.5435 11.5489 19.35C12.0978 18.1565 13.1287 17.2729 15.1905 15.5057L17.1905 13.7914C20.9171 10.5971 22.7805 9 25 9C27.2195 9 29.0829 10.5971 32.8095 13.7914L34.8095 15.5057C36.8713 17.2729 37.9022 18.1565 38.4511 19.35C39 20.5435 39 21.9012 39 24.6168V33.0975C39 36.8688 39 38.7544 37.8284 39.926C36.6569 41.0975 34.7712 41.0975 31 41.0975H19C15.2288 41.0975 13.3431 41.0975 12.1716 39.926C11 38.7544 11 36.8688 11 33.0975V24.6168Z" fill="black"/>
<path d="M8 21.6168C8 18.9012 8 17.5435 8.54892 16.35C9.09785 15.1565 10.1287 14.2729 12.1905 12.5057L14.1905 10.7914C17.9171 7.59713 19.7805 6 22 6C24.2195 6 26.0829 7.59713 29.8095 10.7914L31.8095 12.5057C33.8713 14.2729 34.9022 15.1565 35.4511 16.35C36 17.5435 36 18.9012 36 21.6168V30.0975C36 33.8688 36 35.7544 34.8284 36.926C33.6569 38.0975 31.7712 38.0975 28 38.0975H16C12.2288 38.0975 10.3431 38.0975 9.17157 36.926C8 35.7544 8 33.8688 8 30.0975V21.6168Z" fill="#C03FFF"/>
</svg>
