<svg width="100" height="100" viewBox="0 0 100 100" fill="none" xmlns="http://www.w3.org/2000/svg">
<path opacity="0.35" d="M61.5 94C58.3 94 55 93 52 91.3C49 93 45.7 94 42.5 94C36 94 32.3 91.8 29.5 89.6C27 87.6 24.5 85.3 22.4 82.7C20.2 80.1 20.4 76.2 22.9 73.8C23 73.7 23.1 73.6 23.1 73.4C23.1 73.3 23.1 73.2 23 73.1C21.6 71.6 20.9 69.5 21.3 67.5C21.7 65.5 23 63.7 24.9 62.8C25.1 62.7 25.1 62.6 25.1 62.5C25.1 62.3 25 62.2 24.8 62.2C23.1 61.8 26.4 59.6 25.5 58.1C24.6 56.6 19.6 55.9 20 54.2C20.1 54 20.1 53.7 20.1 53.5C20.1 52.3 20.9 48.2 19.7 48.1C17.7 47.8 15.9 47.2 14.9 45.5C13.9 43.8 12 44.3 12.7 42.4C15.7 34.2 22.6 28.2 31 26C29.5 20.8 30.4 16.1 30.5 15.3C31.1 12.3 33.8 10.1 36.9 10.1H37H37.2C44.3 10.5 49.8 13 53.5 17.5C54.5 16.7 55.5 16 56.6 15.3C57.6 14.7 58.7 14.4 59.8 14.4C62.1 14.4 64.3 15.7 65.4 17.7C66.8 20.1 66.4 23 64.8 25.1C65.2 25.1 65.7 25.1 66.1 25.1C81 25 93 36.7 93 51.1C93 72.9 80.1 85.3 74.5 89.7C71.7 91.8 68 94 61.5 94Z" fill="black"/>
<path d="M59.5001 92C56.3001 92 53.0001 91 50.0001 89.3C47.0001 91 43.7001 92 40.5001 92C34.0001 92 30.3001 89.8 27.5001 87.6C25.0001 85.6 22.5001 83.3 20.4001 80.7C18.2001 78.1 18.4001 74.2 20.9001 71.8C21.0001 71.7 21.1001 71.6 21.1001 71.4C21.1001 71.3 21.1001 71.2 21.0001 71.1C19.6001 69.6 18.9001 67.5 19.3001 65.5C19.7001 63.5 21.0001 61.7 22.9001 60.8C23.1001 60.7 23.1001 60.6 23.1001 60.5C23.1001 60.3 23.0001 60.2 22.8001 60.2C21.1001 59.8 19.6001 58.7 18.7001 57.2C17.8001 55.7 17.6001 53.9 18.0001 52.2C18.1001 52 18.1001 51.7 18.1001 51.5C18.1001 50.3 17.2001 49.2 15.9001 49C13.9001 48.7 12.2001 47.6 11.2001 45.9C10.2001 44.2 10.0001 42.2 10.7001 40.3C13.7001 32.1 20.6001 26.1 29.0001 23.9C27.5001 18.7 28.4001 14 28.5001 13.2C29.1001 10.2 31.8001 8 34.9001 8H35.0001H35.2001C42.3001 8.4 47.8001 10.9 51.5001 15.4C52.5001 14.6 53.5001 13.9 54.6001 13.2C55.6001 12.6 56.7001 12.3 57.8001 12.3C60.1001 12.3 62.3001 13.6 63.4001 15.6C64.8001 18 64.4001 20.9 62.8001 23C63.2001 23 63.7001 23 64.1001 23C79.0001 23 91.0001 34.7 91.0001 49.1C91.0001 70.9 78.1001 83.3 72.5001 87.7C69.7001 89.8 66.0001 92 59.5001 92Z" fill="#F2F2F2"/>
<path d="M50.8 35.8C50.1 35.8 49.5 35.3 49.3 34.6C49.1 33.6 49 32.6 49 31.5C49 25.8 52.1 20.5 57.1 17.6C57.8 17.2 58.7 17.4 59.1 18.2C59.5 18.9 59.3 19.8 58.5 20.2C54.5 22.5 51.9 26.8 51.9 31.5C51.9 32.3 52 33.2 52.1 34C52.3 34.8 51.7 35.6 50.9 35.8C51 35.8 50.9 35.8 50.8 35.8Z" fill="#40396E"/>
<path d="M49.5 31.4C49.5 31.4 51.9 15.4 34.8 14.5C34.7 14.5 31.5 31.2 49.5 31.4Z" fill="#96C362"/>
<path d="M49.2 31L35.2 15H40.9L46.0999 18.3L49.2999 24.5L50.0999 30.3L49.2 31Z" fill="#739F4D"/>
<path d="M49.5001 32.9C43.5001 32.8 39.1001 31 36.3001 27.6C31.8001 22.1 33.3001 14.5 33.3001 14.2C33.4001 13.5 34.1001 13 34.8001 13C40.4001 13.3 44.7001 15.2 47.5001 18.6C52.0001 24 51.0001 31.3 51.0001 31.6C50.8001 32.4 50.2001 32.9 49.5001 32.9ZM36.1001 16.1C35.9001 18.2 36.0001 22.5 38.6001 25.7C40.6001 28.2 43.8001 29.6 48.1001 29.8C48.1001 27.7 47.8001 23.6 45.2001 20.4C43.2001 18 40.1001 16.5 36.1001 16.1Z" fill="#40396E"/>
<path d="M64.2 29.5C58.5 29.5 53.7 31.8 50 35.4C46.3 31.8 41.5 29.5 35.8 29.5C26.9 29.5 19.4 35 16.6 42.6C21 43.2 24.4 46.9 24.4 51.5C24.4 52.3 24.3 53.1 24.1 53.8C27.1 54.5 29.3 57.2 29.3 60.5C29.3 63.2 27.7 65.6 25.4 66.7C26.6 68 27.3 69.7 27.3 71.5C27.3 73.5 26.5 75.3 25.2 76.5C27.9 79.7 30.3 81.7 31.3 82.5C33.5 84.3 35.9 85.5 40.3 85.5C44 85.5 47.5 83.6 49.8 81.1C52.1 83.6 55.6 85.5 59.3 85.5C63.7 85.5 66.1 84.3 68.3 82.5C71.1 80.3 84.3 69.5 84.3 49.1C84.5 38.3 75.4 29.5 64.2 29.5Z" fill="#F4665C" stroke="#40396E" stroke-width="3" stroke-miterlimit="10" stroke-linecap="round" stroke-linejoin="round"/>
</svg>
