<svg width="100" height="100" viewBox="0 0 100 100" fill="none" xmlns="http://www.w3.org/2000/svg">
<path opacity="0.35" d="M26.6 94.6C17.2 94.6 9.5 86.9 9.5 77.5C9.5 72 12.1 66.9 16.6 63.6L30 52.6C30.3 50.1 31.4 48.4 32.3 47.5C32.7 47.1 33.1 46.7 33.6 46.4C33.8 46.3 34 46.2 34.3 46C31.4 42.4 28.3 38.1 26 34C24.5 31.3 19.9 23 24.1 17.2L24.2 17C24.7 16.3 25.5 15.2 26.7 14.2C29.2 11.9 32.4 10.4 36 9.8C37.3 9.6 38.7 9.5 40.1 9.5C47.4 9.5 55.1 12.3 63.2 15.2C66.5 16.4 69.8 17.6 73 18.5C76 19.4 79 21.1 80.9 22.9L81.1 23.1C83 25.1 84.7 28.1 85.6 31.1C86.6 34.3 87.8 37.6 88.9 40.9C92.4 50.6 95.7 59.7 94.3 68.1C93.8 71.3 92.2 75.9 87.9 79.2C87.5 79.6 86.9 80 86.4 80.3C84.9 81.2 83.2 81.6 81.3 81.7C74.6 81.7 65.6 75.9 58.1 69.8C57.3 71.1 57.1 71.3 56.8 71.6C55.2 73 53.2 73.9 51 74L40.4 87.5C37.2 91.9 32.1 94.6 26.6 94.6Z" fill="black"/>
<path d="M24.6 92.6C15.2 92.6 7.5 84.9 7.5 75.5C7.5 70 10.1 64.9 14.6 61.6L28 50.6C28.3 48.1 29.4 46.4 30.3 45.5C30.7 45.1 31.1 44.7 31.6 44.4C31.8 44.3 32 44.2 32.3 44C29.4 40.4 26.3 36.1 24 32C22.5 29.3 17.9 21 22.1 15.2L22.2 15C22.7 14.3 23.5 13.2 24.7 12.2C27.2 9.9 30.4 8.4 34 7.8C35.3 7.6 36.7 7.5 38.1 7.5C45.4 7.5 53.1 10.3 61.2 13.2C64.5 14.4 67.8 15.6 71 16.5C74 17.4 77 19.1 78.9 20.9L79.1 21.1C81 23.1 82.7 26.1 83.6 29.1C84.6 32.3 85.8 35.6 86.9 38.9C90.4 48.6 93.7 57.7 92.3 66.1C91.8 69.3 90.2 73.9 85.9 77.2C85.5 77.6 84.9 78 84.4 78.3C82.9 79.2 81.2 79.6 79.3 79.7C72.6 79.7 63.6 73.9 56.1 67.8C55.3 69.1 55.1 69.3 54.8 69.6C53.2 71 51.2 71.9 49 72L38.4 85.5C35.2 89.9 30.1 92.6 24.6 92.6Z" fill="#F2F2F2"/>
<path d="M24.6 86C30.4542 86 35.2 81.2543 35.2 75.4C35.2 69.5458 30.4542 64.8 24.6 64.8C18.7458 64.8 14 69.5458 14 75.4C14 81.2543 18.7458 86 24.6 86Z" fill="#FFE8D9"/>
<path d="M18.3 66.5999L33.4001 81.6999L59.8 47.5L52.5 40.2L18.3 66.5999Z" fill="#FFE8D9"/>
<path d="M35.1 49.9L50.1 64.9L59.4 49.2L50.8 40.6L35.1 49.9Z" fill="#FFE8D9"/>
<path opacity="0.35" d="M48.6 61.1L38.5 50.3L32.3 55.4001C33.3 57.9001 35.2 60.5 37.3 62.6C39.5 64.8 41.9 66.5 44.1 67.5L48.6 61.1Z" fill="#40396E"/>
<path d="M49.2 50.8C63.6 65.2 77.3 73.9 81.2 71.5C81.4 71.4 81.7 70.8 82 70.5C84.3 68.8 85.5 66.2 85.9 63.6C87.4 54.5 81.1 42.1 77.6 30.5C77.1 28.7 76 26.6 74.8 25.3C73.5 24.1 71.4 23 69.6 22.5C58 19 45.6 12.7 36.5 14.2C34.3 14.6 32.2 15.4 30.6 17C29.9 17.5 29.1 18.4 28.8 18.8C25.9 22.4 34.7 36.4 49.2 50.8Z" fill="#F4665C"/>
<path d="M47.0999 37.7C51.1869 37.7 54.5 34.3869 54.5 30.3C54.5 26.2131 51.1869 22.9 47.0999 22.9C43.013 22.9 39.7 26.2131 39.7 30.3C39.7 34.3869 43.013 37.7 47.0999 37.7Z" fill="#FFE8D9"/>
<path d="M77.2 66.2C79.5748 66.2 81.5 64.2748 81.5 61.9C81.5 59.5252 79.5748 57.6 77.2 57.6C74.8252 57.6 72.9 59.5252 72.9 61.9C72.9 64.2748 74.8252 66.2 77.2 66.2Z" fill="#FFE8D9"/>
<path d="M60.6 52.7C62.9749 52.7 64.9001 50.7748 64.9001 48.4C64.9001 46.0252 62.9749 44.1 60.6 44.1C58.2252 44.1 56.3 46.0252 56.3 48.4C56.3 50.7748 58.2252 52.7 60.6 52.7Z" fill="#FFE8D9"/>
<path d="M65.1 33.1C67.4749 33.1 69.4001 31.1748 69.4001 28.8C69.4001 26.4252 67.4749 24.5 65.1 24.5C62.7252 24.5 60.8 26.4252 60.8 28.8C60.8 31.1748 62.7252 33.1 65.1 33.1Z" fill="#FFE8D9"/>
<path d="M45.7 54.3001C41.5 50.1001 36.8 48.2001 35.1 49.9001C33.7 51.3001 34.7 54.5001 37.2 57.9001L41.2 56.0001L38.2 59.2001C38.6 59.7001 39.1 60.2001 39.6 60.7001C40.1 61.2001 40.6 61.7001 41.2 62.1001L44.3 59.0001L42.4 63.0001C45.7 65.5001 48.9 66.4001 50.3 65.0001C51.8 63.2001 49.9 58.4001 45.7 54.3001ZM35.3 54.7001C35.1 54.3001 35 53.9001 34.8 53.5001L38.5 52.4001L35.3 54.7001ZM46.1 65.1001C45.7 65.0001 45.3 64.8001 44.9 64.6001L47.3 61.2001L46.1 65.1001Z" fill="#FFE8D9"/>
<path d="M83.6 49.4C82.3 45.2 80.6 40.8 79.1 36.5C77.1 36.4 75 37.1 73.4 38.6C70.5 41.5 70.5 46.2 73.4 49.1C76.2 51.9 80.7 52 83.6 49.4Z" fill="#FFE8D9"/>
<path d="M42.8 14.3999C40 13.8999 37.4 13.7999 35 14.1999C34.7 14.1999 34.4 14.2999 34.1 14.3999C34 15.5999 34.5 16.7999 35.4 17.6999C37.1 19.3999 39.9 19.3999 41.6 17.6999C42.5 16.7999 42.9 15.5999 42.8 14.3999Z" fill="#FFF8E1"/>
<path d="M77.3 31C76.8 29.2 75.6 27 74.4 25.7C73.1 24.4 70.9 23.3 69.1 22.8C57.1 19.2 44.4 12.7 35.1 14.2C32.9 14.6 30.7 15.5 29 17.1C28.3 17.6 27.7 18.6 27.4 19.1C25 22.4 31.2 33.3 42.4 45.8C42.4 45.8 35.4 49.8 35.2 50C34.5 50.7 34.4 52 34.9 53.6L18.4 66.8C15.7 68.7 13.9 71.9 13.9 75.5C13.9 81.4 18.7 86.1 24.5 86.1C28.1 86.1 31.3 84.3 33.2 81.6L46.1 65.2C47.8 65.8 49.2 65.8 50 65C50.2 64.8 54.3 57.8 54.3 57.8C66.7 68.9 77.5 74.9 81 72.8C81.2 72.7 81.5 72.5 81.8 72.2C84.1 70.4 85.4 67.8 85.8 65.1C87.4 55.7 80.9 42.9 77.3 31Z" stroke="#40396E" stroke-width="3" stroke-miterlimit="10" stroke-linecap="round" stroke-linejoin="round"/>
</svg>
