<svg width="51" height="51" viewBox="0 0 51 51" fill="none" xmlns="http://www.w3.org/2000/svg">
<rect x="3" y="3" width="48" height="48" rx="12" fill="black"/>
<rect width="48" height="48" rx="12" fill="#B7DFFF"/>
<path fill-rule="evenodd" clip-rule="evenodd" d="M19.0533 21.3334C20.2007 17.4781 23.7721 14.6667 28.0002 14.6667C33.1548 14.6667 37.3335 18.8454 37.3335 24.0001C37.3335 29.1547 33.1548 33.3334 28.0002 33.3334L15.6668 33.3334C12.9054 33.3334 10.6668 31.0948 10.6668 28.3334V26.3334C10.6668 23.572 12.9054 21.3334 15.6668 21.3334H19.0533Z" fill="#D0D0D0"/>
<path d="M19.0533 21.3334L19.5326 21.476L19.4262 21.8334H19.0533V21.3334ZM28.0002 33.3334L28.0002 32.8334H28.0002V33.3334ZM15.6668 33.3334L15.6668 33.8334H15.6668V33.3334ZM28.0002 15.1667C23.9994 15.1667 20.6186 17.8269 19.5326 21.476L18.5741 21.1908C19.7829 17.1293 23.5449 14.1667 28.0002 14.1667V15.1667ZM36.8335 24.0001C36.8335 19.1216 32.8787 15.1667 28.0002 15.1667V14.1667C33.431 14.1667 37.8335 18.5693 37.8335 24.0001H36.8335ZM28.0002 32.8334C32.8787 32.8334 36.8335 28.8786 36.8335 24.0001H37.8335C37.8335 29.4309 33.431 33.8334 28.0002 33.8334V32.8334ZM15.6668 32.8334L28.0002 32.8334L28.0002 33.8334L15.6668 33.8334L15.6668 32.8334ZM11.1668 28.3334C11.1668 30.8187 13.1815 32.8334 15.6668 32.8334V33.8334C12.6293 33.8334 10.1668 31.371 10.1668 28.3334H11.1668ZM11.1668 26.3334V28.3334H10.1668V26.3334H11.1668ZM15.6668 21.8334C13.1815 21.8334 11.1668 23.8481 11.1668 26.3334H10.1668C10.1668 23.2958 12.6293 20.8334 15.6668 20.8334V21.8334ZM19.0533 21.8334H15.6668V20.8334H19.0533V21.8334Z" fill="white"/>
</svg>
