<svg width="122" height="100" viewBox="0 0 122 100" fill="none" xmlns="http://www.w3.org/2000/svg">
<path opacity="0.35" d="M61.5 94C58.3 94 55 93 52 91.3C49 93 45.7 94 42.5 94C36 94 32.3 91.8 29.5 89.6C27 87.6 24.5 85.3 22.4 82.7C20.2 80.1 20.4 76.2 22.9 73.8C23 73.7 23.1 73.6 23.1 73.4C23.1 73.3 23.1 73.2 23 73.1C21.6 71.6 20.9 69.5 21.3 67.5C21.7 65.5 23 63.7 24.9 62.8C25.1 62.7 25.1 62.6 25.1 62.5C25.1 62.3 25 62.2 24.8 62.2C23.1 61.8 26.4 59.6 25.5 58.1C24.6 56.6 19.6 55.9 20 54.2C20.1 54 20.1 53.7 20.1 53.5C20.1 52.3 20.9 48.2 19.7 48.1C17.7 47.8 15.9 47.2 14.9 45.5C13.9 43.8 12 44.3 12.7 42.4C15.7 34.2 22.6 28.2 31 26C29.5 20.8 30.4 16.1 30.5 15.3C31.1 12.3 33.8 10.1 36.9 10.1H37H37.2C44.3 10.5 49.8 13 53.5 17.5C54.5 16.7 55.5 16 56.6 15.3C57.6 14.7 58.7 14.4 59.8 14.4C62.1 14.4 64.3 15.7 65.4 17.7C66.8 20.1 66.4 23 64.8 25.1C65.2 25.1 65.7 25.1 66.1 25.1C81 25 93 36.7 93 51.1C93 72.9 80.1 85.3 74.5 89.7C71.7 91.8 68 94 61.5 94Z" fill="black"/>
<path d="M59.5 92C56.3 92 53 91 50 89.3C47 91 43.7 92 40.5 92C34 92 30.3 89.8 27.5 87.6C25 85.6 22.5 83.3 20.4 80.7C18.2 78.1 18.4 74.2 20.9 71.8C21 71.7 21.1 71.6 21.1 71.4C21.1 71.3 21.1 71.2 21 71.1C19.6 69.6 18.9 67.5 19.3 65.5C19.7 63.5 21 61.7 22.9 60.8C23.1 60.7 23.1 60.6 23.1 60.5C23.1 60.3 23 60.2 22.8 60.2C21.1 59.8 19.6 58.7 18.7 57.2C17.8 55.7 17.6 53.9 18 52.2C18.1 52 18.1 51.7 18.1 51.5C18.1 50.3 17.2 49.2 15.9 49C13.9 48.7 12.2 47.6 11.2 45.9C10.2 44.2 10 42.2 10.7 40.3C13.7 32.1 20.6 26.1 29 23.9C27.5 18.7 28.4 14 28.5 13.2C29.1 10.2 31.8 8 34.9 8H35H35.2C42.3 8.4 47.8 10.9 51.5 15.4C52.5 14.6 53.5 13.9 54.6 13.2C55.6 12.6 56.7 12.3 57.8 12.3C60.1 12.3 62.3 13.6 63.4 15.6C64.8 18 64.4 20.9 62.8 23C63.2 23 63.7 23 64.1 23C79 23 91 34.7 91 49.1C91 70.9 78.1 83.3 72.5 87.7C69.7 89.8 66 92 59.5 92Z" fill="#F2F2F2"/>
<path d="M50.8 35.8C50.1 35.8 49.5 35.3 49.3 34.6C49.1 33.6 49 32.6 49 31.5C49 25.8 52.1 20.5 57.1 17.6C57.8 17.2 58.7 17.4 59.1 18.2C59.5 18.9 59.3 19.8 58.5 20.2C54.5 22.5 51.9 26.8 51.9 31.5C51.9 32.3 52 33.2 52.1 34C52.3 34.8 51.7 35.6 50.9 35.8C51 35.8 50.9 35.8 50.8 35.8Z" fill="#40396E"/>
<path d="M49.5 31.4C49.5 31.4 51.9 15.4 34.8 14.5C34.7 14.5 31.5 31.2 49.5 31.4Z" fill="#96C362"/>
<path d="M49.2 31L35.2 15H40.9L46.1 18.3L49.3 24.5L50.1 30.3L49.2 31Z" fill="#739F4D"/>
<path d="M49.5 32.9C43.5 32.8 39.1 31 36.3 27.6C31.8 22.1 33.3 14.5 33.3 14.2C33.4 13.5 34.1 13 34.8 13C40.4 13.3 44.7 15.2 47.5 18.6C52 24 51 31.3 51 31.6C50.8 32.4 50.2 32.9 49.5 32.9ZM36.1 16.1C35.9 18.2 36 22.5 38.6 25.7C40.6 28.2 43.8 29.6 48.1 29.8C48.1 27.7 47.8 23.6 45.2 20.4C43.2 18 40.1 16.5 36.1 16.1Z" fill="#40396E"/>
<path d="M64.2 29.5C58.5 29.5 53.7 31.8 50 35.4C46.3 31.8 41.5 29.5 35.8 29.5C26.9 29.5 19.4 35 16.6 42.6C21 43.2 24.4 46.9 24.4 51.5C24.4 52.3 24.3 53.1 24.1 53.8C27.1 54.5 29.3 57.2 29.3 60.5C29.3 63.2 27.7 65.6 25.4 66.7C26.6 68 27.3 69.7 27.3 71.5C27.3 73.5 26.5 75.3 25.2 76.5C27.9 79.7 30.3 81.7 31.3 82.5C33.5 84.3 35.9 85.5 40.3 85.5C44 85.5 47.5 83.6 49.8 81.1C52.1 83.6 55.6 85.5 59.3 85.5C63.7 85.5 66.1 84.3 68.3 82.5C71.1 80.3 84.3 69.5 84.3 49.1C84.5 38.3 75.4 29.5 64.2 29.5Z" fill="#F4665C" stroke="#40396E" stroke-width="3" stroke-miterlimit="10" stroke-linecap="round" stroke-linejoin="round"/>
<rect x="66.5" y="53.5" width="54" height="28" rx="14" fill="white"/>
<rect x="66.5" y="53.5" width="54" height="28" rx="14" stroke="black" stroke-width="3"/>
<path d="M82.3182 61.2045C82.9962 61.2045 83.6383 61.3125 84.2443 61.5284C84.8504 61.7405 85.3864 62.0758 85.8523 62.5341C86.322 62.9924 86.6894 63.5909 86.9545 64.3295C87.2235 65.0644 87.3598 65.9545 87.3636 67C87.3674 67.9545 87.2481 68.8125 87.0057 69.5739C86.767 70.3314 86.4242 70.9773 85.9773 71.5114C85.5341 72.0455 85 72.4545 84.375 72.7386C83.7538 73.0189 83.0606 73.1591 82.2955 73.1591C81.4356 73.1591 80.6799 72.9943 80.0284 72.6648C79.3769 72.3352 78.858 71.892 78.4716 71.3352C78.0852 70.7784 77.8598 70.1591 77.7955 69.4773H80.9091C80.9848 69.8295 81.1515 70.0852 81.4091 70.2443C81.6667 70.3996 81.9621 70.4773 82.2955 70.4773C82.9621 70.4773 83.4489 70.1894 83.7557 69.6136C84.0663 69.0341 84.2235 68.2614 84.2273 67.2955H84.1591C84.0114 67.6515 83.7879 67.9564 83.4886 68.2102C83.1894 68.464 82.8409 68.6591 82.4432 68.7955C82.0455 68.9318 81.625 69 81.1818 69C80.4811 69 79.8674 68.8428 79.3409 68.5284C78.8144 68.2102 78.4034 67.7765 78.108 67.2273C77.8125 66.6742 77.6629 66.0455 77.6591 65.3409C77.6553 64.5152 77.8504 63.7917 78.2443 63.1705C78.6383 62.5492 79.1856 62.0663 79.8864 61.7216C80.5871 61.3769 81.3977 61.2045 82.3182 61.2045ZM82.3409 63.5909C82.0265 63.5909 81.7462 63.6629 81.5 63.8068C81.2576 63.9508 81.0663 64.1458 80.9261 64.392C80.7898 64.6383 80.7235 64.9167 80.7273 65.2273C80.7311 65.5379 80.8011 65.8163 80.9375 66.0625C81.0777 66.3087 81.267 66.5038 81.5057 66.6477C81.7481 66.7917 82.0265 66.8636 82.3409 66.8636C82.572 66.8636 82.786 66.8239 82.983 66.7443C83.1799 66.661 83.3504 66.5455 83.4943 66.3977C83.642 66.2462 83.7557 66.072 83.8352 65.875C83.9186 65.6742 83.9583 65.4583 83.9545 65.2273C83.9508 64.9167 83.8788 64.6383 83.7386 64.392C83.5985 64.1458 83.4072 63.9508 83.1648 63.8068C82.9223 63.6629 82.6477 63.5909 82.3409 63.5909ZM93.3849 73.1591C92.491 73.1591 91.6974 73.0019 91.0043 72.6875C90.3149 72.3693 89.7713 71.9318 89.3736 71.375C88.9796 70.8182 88.7789 70.178 88.7713 69.4545H91.8395C91.8509 69.8561 92.0062 70.1761 92.3054 70.4148C92.6084 70.6534 92.9683 70.7727 93.3849 70.7727C93.7069 70.7727 93.991 70.7045 94.2372 70.5682C94.4834 70.428 94.6766 70.2311 94.8168 69.9773C94.9569 69.7235 95.0251 69.428 95.0213 69.0909C95.0251 68.75 94.9569 68.4545 94.8168 68.2045C94.6766 67.9508 94.4834 67.7557 94.2372 67.6193C93.991 67.4792 93.7069 67.4091 93.3849 67.4091C93.0516 67.4091 92.7429 67.4905 92.4588 67.6534C92.1785 67.8125 91.9721 68.0341 91.8395 68.3182L89.0668 67.7727L89.5213 61.3636H97.3395V63.8864H92.1122L91.8849 66.4545H91.9531C92.1349 66.1023 92.4493 65.8106 92.8963 65.5795C93.3433 65.3447 93.8622 65.2273 94.4531 65.2273C95.1463 65.2273 95.7637 65.3883 96.3054 65.7102C96.8509 66.0322 97.2808 66.4773 97.5952 67.0455C97.9134 67.6098 98.0705 68.2614 98.0668 69C98.0705 69.8106 97.8774 70.5303 97.4872 71.1591C97.1009 71.7841 96.5573 72.2746 95.8565 72.6307C95.1558 72.983 94.3319 73.1591 93.3849 73.1591ZM103.656 76.4545C102.781 76.4545 102.031 76.3295 101.406 76.0795C100.785 75.8333 100.302 75.4924 99.9574 75.0568C99.6165 74.625 99.4252 74.1288 99.3835 73.5682H102.406C102.437 73.7538 102.512 73.9034 102.634 74.017C102.755 74.1307 102.91 74.2121 103.099 74.2614C103.293 74.3144 103.509 74.3409 103.747 74.3409C104.152 74.3409 104.488 74.2424 104.753 74.0455C105.022 73.8485 105.156 73.4924 105.156 72.9773V71.5H105.065C104.952 71.7955 104.777 72.0473 104.543 72.2557C104.308 72.4602 104.026 72.6174 103.696 72.7273C103.366 72.8333 103.005 72.8864 102.611 72.8864C101.99 72.8864 101.418 72.7424 100.895 72.4545C100.376 72.1667 99.9593 71.7102 99.6449 71.0852C99.3343 70.4602 99.179 69.6439 99.179 68.6364C99.179 67.5833 99.3419 66.7273 99.6676 66.0682C99.9972 65.4091 100.421 64.9261 100.94 64.6193C101.463 64.3125 102.012 64.1591 102.588 64.1591C103.02 64.1591 103.399 64.2348 103.724 64.3864C104.05 64.5341 104.323 64.733 104.543 64.983C104.762 65.2292 104.929 65.5 105.043 65.7955H105.111V64.2727H108.247V72.9773C108.247 73.7159 108.056 74.3428 107.673 74.858C107.295 75.3769 106.76 75.7727 106.071 76.0455C105.382 76.3182 104.577 76.4545 103.656 76.4545ZM103.77 70.6591C104.058 70.6591 104.304 70.5795 104.509 70.4205C104.717 70.2576 104.876 70.0265 104.986 69.7273C105.099 69.4242 105.156 69.0606 105.156 68.6364C105.156 68.2045 105.099 67.8352 104.986 67.5284C104.876 67.2178 104.717 66.9811 104.509 66.8182C104.304 66.6515 104.058 66.5682 103.77 66.5682C103.482 66.5682 103.236 66.6515 103.031 66.8182C102.83 66.9811 102.675 67.2178 102.565 67.5284C102.459 67.8352 102.406 68.2045 102.406 68.6364C102.406 69.0682 102.459 69.4356 102.565 69.7386C102.675 70.0379 102.83 70.267 103.031 70.4261C103.236 70.5814 103.482 70.6591 103.77 70.6591Z" fill="black"/>
</svg>
