<svg width="104" height="100" viewBox="0 0 104 100" fill="none" xmlns="http://www.w3.org/2000/svg">
<path opacity="0.35" d="M23.043 97.6031C20.315 97.6031 17.752 96.5421 15.825 94.6161L6.461 85.2521C2.482 81.2721 2.482 74.7971 6.461 70.8171C8.345 68.9331 10.836 67.8761 13.493 67.8291C15.937 64.2831 20.16 58.8251 27.169 51.4161C24.895 41.4541 27.883 30.7681 35.186 23.4661L51.744 6.90705C52.97 5.68005 54.603 5.00305 56.341 5.00305C57.514 5.00305 58.667 5.32105 59.674 5.92305C62.23 7.44705 63.422 10.5091 62.568 13.3651L61.007 18.5801C62.361 18.7951 63.637 19.4381 64.61 20.4171C66.017 21.8301 66.704 23.8581 66.446 25.8401L66.2 27.7191L71.825 26.2191C72.367 26.0741 72.933 26.0001 73.5 26.0001C75.158 26.0001 76.737 26.6251 77.947 27.7601C79.598 29.3111 80.318 31.5601 79.872 33.7791L79.106 37.6071L90.791 36.3721C91.047 36.3471 91.258 36.3371 91.468 36.3371C93.965 36.3371 96.271 37.7911 97.342 40.0411C98.525 42.5171 98.015 45.4901 96.069 47.4351L77.611 65.8921C71.947 71.5571 64.41 74.6761 56.39 74.6761C54.116 74.6761 51.861 74.4201 49.658 73.9111C42.251 80.9181 36.795 85.1401 33.249 87.5831C33.202 90.2401 32.145 92.7301 30.261 94.6151C28.333 96.5421 25.771 97.6031 23.043 97.6031Z" fill="black"/>
<path d="M21.043 95.6031C18.315 95.6031 15.752 94.5421 13.825 92.6161L4.461 83.2521C0.481996 79.2721 0.481996 72.7971 4.461 68.8171C6.345 66.9331 8.836 65.8761 11.493 65.8291C13.937 62.2831 18.16 56.8251 25.169 49.4161C22.895 39.4541 25.883 28.7681 33.186 21.4661L49.744 4.90705C50.97 3.68005 52.603 3.00305 54.341 3.00305C55.514 3.00305 56.667 3.32105 57.674 3.92305C60.23 5.44705 61.422 8.50905 60.568 11.3651L59.007 16.5801C60.361 16.7951 61.637 17.4381 62.61 18.4171C64.017 19.8301 64.704 21.8581 64.446 23.8401L64.2 25.7191L69.825 24.2191C70.367 24.0741 70.933 24.0001 71.5 24.0001C73.158 24.0001 74.737 24.6251 75.947 25.7601C77.598 27.3111 78.318 29.5601 77.872 31.7791L77.106 35.6071L88.791 34.3721C89.047 34.3471 89.258 34.3371 89.468 34.3371C91.965 34.3371 94.271 35.7911 95.342 38.0411C96.525 40.5171 96.015 43.4901 94.069 45.4351L75.611 63.8921C69.947 69.5571 62.41 72.6761 54.39 72.6761C52.116 72.6761 49.861 72.4201 47.658 71.9111C40.251 78.9181 34.795 83.1401 31.249 85.5831C31.202 88.2401 30.145 90.7301 28.261 92.6151C26.333 94.5421 23.771 95.6031 21.043 95.6031Z" fill="#F2F2F2"/>
<path d="M54.34 9.50305L37.781 26.0611C30.99 32.8521 29.23 42.7641 32.49 51.1791C17.91 66.1051 14.386 73.4981 14.386 73.4981L13.679 72.7911C12.507 71.6191 10.608 71.6191 9.43598 72.7911C8.26398 73.9631 7.26398 76.862 8.43598 78.034L19.043 88.6401C20.215 89.8121 23.114 88.8121 24.286 87.6401C25.458 86.4681 25.458 84.5691 24.286 83.3971L23.579 82.6901C23.579 82.6901 30.972 79.1661 45.898 64.5861C54.313 67.8461 64.225 66.0861 71.016 59.2951L89.476 40.8351L69 43.0001L71.5 30.5001L56.5 34.5001L58 23.0001L50 24.0001L54.34 9.50305Z" fill="#96C362"/>
<path d="M12.863 74.107L22.511 83.755L25 86L20 90L8 76L12 72L12.863 74.107Z" fill="#739F4D"/>
<path d="M52 14L44 32L51 33L50 43H61L64 52L85.708 42.831L68.112 43.64L71.5 30.5L57.258 34.371L56.978 23.128L50 24.427L53 13L52 14Z" fill="#407845"/>
<path d="M54.34 9.50305L37.781 26.0611C30.99 32.8521 29.23 42.7641 32.49 51.1791C17.91 66.1051 14.386 73.4981 14.386 73.4981L14.3 73.4131C12.852 71.9651 10.505 71.9651 9.05701 73.4131C7.60901 74.8611 7.60901 77.2081 9.05701 78.6561L18.421 88.0201C19.869 89.4681 22.216 89.4681 23.664 88.0201C25.112 86.5721 25.112 84.2251 23.664 82.7771L23.578 82.6911C23.578 82.6911 30.971 79.1671 45.897 64.5871C54.312 67.8471 64.224 66.0871 71.015 59.2961L89.475 40.8361L69 43.0001L71.5 30.5001L56.5 34.5001L58 23.0001L51.5 24.5001L54.34 9.50305Z" stroke="#40396E" stroke-width="3" stroke-miterlimit="10" stroke-linecap="round" stroke-linejoin="round"/>
<rect x="36.5" y="56.5" width="66" height="28" rx="14" fill="white"/>
<rect x="36.5" y="56.5" width="66" height="28" rx="14" stroke="black" stroke-width="3"/>
<path d="M47.7727 76V73.7273L52.1136 70.1364C52.4015 69.8977 52.6477 69.6742 52.8523 69.4659C53.0606 69.2538 53.2197 69.036 53.3295 68.8125C53.4432 68.589 53.5 68.3409 53.5 68.0682C53.5 67.7689 53.4356 67.5133 53.3068 67.3011C53.1818 67.089 53.0076 66.9261 52.7841 66.8125C52.5606 66.6951 52.303 66.6364 52.0114 66.6364C51.7197 66.6364 51.4621 66.6951 51.2386 66.8125C51.0189 66.9299 50.8485 67.1023 50.7273 67.3295C50.6061 67.5568 50.5455 67.8333 50.5455 68.1591H47.5455C47.5455 67.3409 47.7292 66.6364 48.0966 66.0455C48.464 65.4545 48.983 65 49.6534 64.6818C50.3239 64.3636 51.1098 64.2045 52.0114 64.2045C52.9432 64.2045 53.75 64.3542 54.4318 64.6534C55.1174 64.9489 55.6458 65.3655 56.017 65.9034C56.392 66.4413 56.5795 67.072 56.5795 67.7955C56.5795 68.2424 56.4867 68.6875 56.3011 69.1307C56.1155 69.5701 55.7822 70.0568 55.3011 70.5909C54.8201 71.125 54.1364 71.7614 53.25 72.5L52.1591 73.4091V73.4773H56.7045V76H47.7727ZM63.1847 76.3182C62.1278 76.3144 61.215 76.0701 60.446 75.5852C59.6771 75.1004 59.0843 74.4015 58.6676 73.4886C58.2509 72.5758 58.0445 71.4811 58.0483 70.2045C58.0521 68.9242 58.2604 67.8371 58.6733 66.9432C59.09 66.0492 59.6809 65.3693 60.446 64.9034C61.215 64.4375 62.1278 64.2045 63.1847 64.2045C64.2415 64.2045 65.1544 64.4394 65.9233 64.9091C66.6922 65.375 67.285 66.0549 67.7017 66.9489C68.1184 67.8428 68.3248 68.928 68.321 70.2045C68.321 71.4886 68.1127 72.5871 67.696 73.5C67.2794 74.4129 66.6866 75.1117 65.9176 75.5966C65.1525 76.0777 64.2415 76.3182 63.1847 76.3182ZM63.1847 73.75C63.7301 73.75 64.1771 73.4659 64.5256 72.8977C64.8778 72.3258 65.0521 71.428 65.0483 70.2045C65.0483 69.4053 64.9688 68.7519 64.8097 68.2443C64.6506 67.7367 64.4309 67.3617 64.1506 67.1193C63.8703 66.8731 63.5483 66.75 63.1847 66.75C62.6392 66.75 62.1941 67.0265 61.8494 67.5795C61.5047 68.1326 61.3286 69.0076 61.321 70.2045C61.3172 71.0189 61.3949 71.6894 61.554 72.2159C61.7131 72.7386 61.9328 73.125 62.2131 73.375C62.4972 73.625 62.821 73.75 63.1847 73.75ZM74.8722 76.3182C73.8153 76.3144 72.9025 76.0701 72.1335 75.5852C71.3646 75.1004 70.7718 74.4015 70.3551 73.4886C69.9384 72.5758 69.732 71.4811 69.7358 70.2045C69.7396 68.9242 69.9479 67.8371 70.3608 66.9432C70.7775 66.0492 71.3684 65.3693 72.1335 64.9034C72.9025 64.4375 73.8153 64.2045 74.8722 64.2045C75.929 64.2045 76.8419 64.4394 77.6108 64.9091C78.3797 65.375 78.9725 66.0549 79.3892 66.9489C79.8059 67.8428 80.0123 68.928 80.0085 70.2045C80.0085 71.4886 79.8002 72.5871 79.3835 73.5C78.9669 74.4129 78.3741 75.1117 77.6051 75.5966C76.84 76.0777 75.929 76.3182 74.8722 76.3182ZM74.8722 73.75C75.4176 73.75 75.8646 73.4659 76.2131 72.8977C76.5653 72.3258 76.7396 71.428 76.7358 70.2045C76.7358 69.4053 76.6563 68.7519 76.4972 68.2443C76.3381 67.7367 76.1184 67.3617 75.8381 67.1193C75.5578 66.8731 75.2358 66.75 74.8722 66.75C74.3267 66.75 73.8816 67.0265 73.5369 67.5795C73.1922 68.1326 73.0161 69.0076 73.0085 70.2045C73.0047 71.0189 73.0824 71.6894 73.2415 72.2159C73.4006 72.7386 73.6203 73.125 73.9006 73.375C74.1847 73.625 74.5085 73.75 74.8722 73.75ZM85.7188 79.4545C84.8438 79.4545 84.0938 79.3295 83.4688 79.0795C82.8475 78.8333 82.3646 78.4924 82.0199 78.0568C81.679 77.625 81.4877 77.1288 81.446 76.5682H84.4688C84.4991 76.7538 84.5748 76.9034 84.696 77.017C84.8172 77.1307 84.9725 77.2121 85.1619 77.2614C85.3551 77.3144 85.571 77.3409 85.8097 77.3409C86.215 77.3409 86.5502 77.2424 86.8153 77.0455C87.0843 76.8485 87.2188 76.4924 87.2188 75.9773V74.5H87.1278C87.0142 74.7955 86.84 75.0473 86.6051 75.2557C86.3703 75.4602 86.0881 75.6174 85.7585 75.7273C85.429 75.8333 85.0672 75.8864 84.6733 75.8864C84.0521 75.8864 83.4801 75.7424 82.9574 75.4545C82.4384 75.1667 82.0218 74.7102 81.7074 74.0852C81.3968 73.4602 81.2415 72.6439 81.2415 71.6364C81.2415 70.5833 81.4044 69.7273 81.7301 69.0682C82.0597 68.4091 82.4839 67.9261 83.0028 67.6193C83.5256 67.3125 84.0748 67.1591 84.6506 67.1591C85.0824 67.1591 85.4612 67.2348 85.7869 67.3864C86.1127 67.5341 86.3854 67.733 86.6051 67.983C86.8248 68.2292 86.9915 68.5 87.1051 68.7955H87.1733V67.2727H90.3097V75.9773C90.3097 76.7159 90.1184 77.3428 89.7358 77.858C89.357 78.3769 88.8229 78.7727 88.1335 79.0455C87.4441 79.3182 86.6392 79.4545 85.7188 79.4545ZM85.8324 73.6591C86.1203 73.6591 86.3665 73.5795 86.571 73.4205C86.7794 73.2576 86.9384 73.0265 87.0483 72.7273C87.1619 72.4242 87.2188 72.0606 87.2188 71.6364C87.2188 71.2045 87.1619 70.8352 87.0483 70.5284C86.9384 70.2178 86.7794 69.9811 86.571 69.8182C86.3665 69.6515 86.1203 69.5682 85.8324 69.5682C85.5445 69.5682 85.2983 69.6515 85.0938 69.8182C84.893 69.9811 84.7377 70.2178 84.6278 70.5284C84.5218 70.8352 84.4688 71.2045 84.4688 71.6364C84.4688 72.0682 84.5218 72.4356 84.6278 72.7386C84.7377 73.0379 84.893 73.267 85.0938 73.4261C85.2983 73.5814 85.5445 73.6591 85.8324 73.6591Z" fill="black"/>
</svg>
