<svg width="24" height="24" viewBox="0 0 24 24" fill="none" xmlns="http://www.w3.org/2000/svg">
<path d="M18.5082 14.7126L18.8489 14.4027L18.8761 14.3779C19.4664 13.8409 19.9452 13.4053 20.2617 13.0359C20.573 12.6725 20.8411 12.2472 20.7619 11.7474C20.7357 11.5818 20.6819 11.4218 20.6027 11.274C20.3632 10.8268 19.8888 10.6504 19.4186 10.549C18.9393 10.4456 18.2885 10.3873 17.4851 10.3154L17.4486 10.3121C16.9475 10.2672 16.6022 10.2359 16.3319 10.1886C16.07 10.1427 15.914 10.0871 15.7886 10.0115C15.7055 9.96143 15.6275 9.90343 15.5557 9.83831C15.4468 9.73964 15.349 9.60695 15.2307 9.37184C15.1085 9.12889 14.9803 8.81056 14.7947 8.34768L14.7814 8.31475C14.4716 7.54233 14.222 6.91992 13.9821 6.47986C13.7495 6.05328 13.4452 5.63815 12.9499 5.53281C12.7442 5.48906 12.5316 5.48906 12.3259 5.53281C11.8306 5.63815 11.5263 6.05328 11.2937 6.47986C11.0538 6.91991 10.8042 7.54232 10.4943 8.31474L10.4811 8.34768C10.2955 8.81056 10.1673 9.12889 10.0451 9.37184C9.92676 9.60695 9.829 9.73964 9.72012 9.83831C9.64826 9.90343 9.57025 9.96143 9.48719 10.0115C9.36178 10.0871 9.20579 10.1427 8.94386 10.1886C8.67358 10.2359 8.32833 10.2672 7.82717 10.3121L7.79067 10.3154C6.98727 10.3873 6.33653 10.4456 5.85717 10.549C5.38701 10.6504 4.91257 10.8268 4.67307 11.274C4.59391 11.4218 4.54009 11.5818 4.51385 11.7474C4.43465 12.2472 4.70274 12.6725 5.01411 13.0359C5.33062 13.4053 5.80939 13.8409 6.39964 14.3779L6.42692 14.4027L6.76759 14.7126C7.37011 15.2608 7.57018 15.4532 7.68474 15.6781C7.75937 15.8246 7.8094 15.9823 7.83285 16.1451C7.86884 16.3948 7.81623 16.6674 7.63979 17.4626L7.57978 17.7331L7.57436 17.7575C7.42835 18.4156 7.31174 18.9411 7.25712 19.343C7.20547 19.7229 7.18465 20.1305 7.36851 20.4568C7.6218 20.9063 8.08837 21.1941 8.60377 21.2187C8.97788 21.2366 9.3327 21.0351 9.6491 20.8184C9.98369 20.5892 10.401 20.2492 10.9236 19.8233L10.943 19.8076C11.3037 19.5136 11.5537 19.3103 11.7621 19.1643C11.9655 19.022 12.1013 18.9548 12.2244 18.9195C12.4946 18.842 12.7812 18.842 13.0513 18.9195C13.1745 18.9548 13.3103 19.022 13.5136 19.1643C13.7221 19.3103 13.9721 19.5136 14.3328 19.8076L14.3522 19.8233C14.8748 20.2492 15.2921 20.5892 15.6267 20.8184C15.9431 21.0351 16.2979 21.2366 16.672 21.2187C17.1874 21.1941 17.654 20.9063 17.9073 20.4568C18.0911 20.1305 18.0703 19.7229 18.0187 19.343C17.964 18.9411 17.8474 18.4156 17.7014 17.7575L17.696 17.7331L17.636 17.4626C17.4596 16.6674 17.4069 16.3948 17.4429 16.1451C17.4664 15.9823 17.5164 15.8246 17.591 15.6781C17.7056 15.4532 17.9057 15.2608 18.5082 14.7126Z" fill="black" stroke="black"/>
<path d="M16.5082 12.7126L16.8489 12.4027L16.8761 12.3779C17.4664 11.8409 17.9452 11.4053 18.2617 11.0359C18.573 10.6725 18.8411 10.2472 18.7619 9.74739C18.7357 9.5818 18.6819 9.42178 18.6027 9.27398C18.3632 8.8268 17.8888 8.65035 17.4186 8.54897C16.9393 8.4456 16.2885 8.38733 15.4851 8.31539L15.4486 8.31212C14.9475 8.26724 14.6022 8.23591 14.3319 8.18856C14.07 8.14268 13.914 8.08708 13.7886 8.0115C13.7055 7.96143 13.6275 7.90343 13.5557 7.83831C13.4468 7.73964 13.349 7.60695 13.2307 7.37184C13.1085 7.12889 12.9803 6.81056 12.7947 6.34768L12.7814 6.31475C12.4716 5.54233 12.222 4.91992 11.9821 4.47986C11.7495 4.05328 11.4452 3.63815 10.9499 3.53281C10.7442 3.48906 10.5316 3.48906 10.3259 3.53281C9.83058 3.63815 9.52627 4.05328 9.29371 4.47986C9.05382 4.91991 8.80416 5.54232 8.49434 6.31474L8.48113 6.34768C8.29546 6.81056 8.16732 7.12889 8.04507 7.37184C7.92676 7.60695 7.829 7.73964 7.72012 7.83831C7.64826 7.90343 7.57025 7.96143 7.48719 8.0115C7.36178 8.08708 7.20579 8.14268 6.94386 8.18856C6.67358 8.23591 6.32833 8.26724 5.82717 8.31212L5.79067 8.31539C4.98727 8.38733 4.33653 8.4456 3.85717 8.54897C3.38701 8.65035 2.91257 8.8268 2.67307 9.27398C2.59391 9.42178 2.54009 9.5818 2.51385 9.74739C2.43465 10.2472 2.70274 10.6725 3.01411 11.0359C3.33062 11.4053 3.80939 11.8409 4.39964 12.3779L4.42692 12.4027L4.76759 12.7126C5.37011 13.2608 5.57018 13.4532 5.68474 13.6781C5.75937 13.8246 5.8094 13.9823 5.83285 14.1451C5.86884 14.3948 5.81623 14.6674 5.63979 15.4626L5.57978 15.7331L5.57436 15.7575C5.42835 16.4156 5.31174 16.9411 5.25712 17.343C5.20547 17.7229 5.18465 18.1305 5.36851 18.4568C5.6218 18.9063 6.08837 19.1941 6.60377 19.2187C6.97788 19.2366 7.3327 19.0351 7.6491 18.8184C7.98369 18.5892 8.40102 18.2492 8.92359 17.8233L8.94295 17.8076C9.30367 17.5136 9.55372 17.3103 9.76214 17.1643C9.96548 17.022 10.1013 16.9548 10.2244 16.9195C10.4946 16.842 10.7812 16.842 11.0513 16.9195C11.1745 16.9548 11.3103 17.022 11.5136 17.1643C11.7221 17.3103 11.9721 17.5136 12.3328 17.8076L12.3522 17.8233C12.8748 18.2492 13.2921 18.5892 13.6267 18.8184C13.9431 19.0351 14.2979 19.2366 14.672 19.2187C15.1874 19.1941 15.654 18.9063 15.9073 18.4568C16.0911 18.1305 16.0703 17.7229 16.0187 17.343C15.964 16.9411 15.8474 16.4156 15.7014 15.7575L15.696 15.7331L15.636 15.4626C15.4596 14.6674 15.4069 14.3948 15.4429 14.1451C15.4664 13.9823 15.5164 13.8246 15.591 13.6781C15.7056 13.4532 15.9057 13.2608 16.5082 12.7126Z" fill="#FFCB0C" stroke="black"/>
</svg>
