<svg width="100" height="100" viewBox="0 0 100 100" fill="none" xmlns="http://www.w3.org/2000/svg">
<path opacity="0.35" d="M58.781 95.504C57.692 95.504 56.581 95.271 55.568 94.829L49.297 92.14L37.743 93.583C37.338 93.634 36.92 93.66 36.504 93.66C35.429 93.66 34.367 93.489 33.347 93.153L28.802 91.637C28.368 91.491 27.953 91.303 27.562 91.072L24.895 89.747L24.802 89.696C24.552 89.558 24.265 89.396 23.943 89.179C23.771 89.07 23.602 88.953 23.44 88.827C23.072 88.553 22.712 88.241 22.371 87.899L15.925 81.486L9.84798 77.168C8.49598 76.217 7.49098 74.791 7.02898 73.158C6.49198 71.334 6.71398 69.305 7.64198 67.578C7.73598 67.404 7.82998 67.246 7.92998 67.093L12.652 59.804C13.077 59.094 13.604 58.46 14.224 57.914C14.372 57.773 14.53 57.638 14.693 57.511C15.008 57.264 15.339 57.046 15.689 56.853C15.594 56.396 15.547 55.926 15.552 55.452V42.405C15.552 40.597 16.043 38.818 16.972 37.261L21.635 29.49L23.284 26.19C23.602 25.556 24.013 24.987 24.51 24.493L27.509 21.493C29.075 19.93 31.149 19.073 33.352 19.073H36.863L43.981 11.354C45.654 9.54 48.032 8.5 50.504 8.5C52.544 8.5 54.537 9.21 56.115 10.5L67.813 20C68.876 20.883 69.651 21.901 70.159 23.062C70.623 24.093 70.868 25.252 70.868 26.42C70.868 26.596 70.861 26.773 70.847 26.948L71.924 27.517L78.736 26.286C79.212 26.176 79.699 26.12 80.189 26.12H83.711C84.609 26.12 85.482 26.302 86.307 26.661L92.189 29.226L92.311 29.272L92.476 29.354C94.725 30.398 96.368 32.365 96.993 34.77C97.628 37.217 97.123 39.78 95.607 41.803L94.504 43.186L89.165 52.533L91.353 58C91.649 58.741 91.856 59.517 91.969 60.306L93.594 71.673C93.827 73.376 93.55 75.053 92.795 76.553L91.649 78.844C90.56 81.008 88.602 82.577 86.271 83.163L74.197 86.181L63.687 93.898C62.526 94.728 61.296 95.223 59.982 95.408C59.589 95.472 59.186 95.504 58.781 95.504Z" fill="black"/>
<path d="M56.781 93.504C55.692 93.504 54.581 93.271 53.568 92.829L47.297 90.14L35.743 91.583C35.338 91.634 34.92 91.66 34.504 91.66C33.429 91.66 32.367 91.489 31.347 91.153L26.802 89.637C26.368 89.491 25.953 89.303 25.562 89.072L22.895 87.747L22.802 87.696C22.552 87.558 22.265 87.396 21.943 87.179C21.771 87.07 21.602 86.953 21.44 86.827C21.072 86.553 20.712 86.241 20.371 85.899L13.925 79.486L7.84798 75.168C6.49598 74.217 5.49098 72.791 5.02898 71.158C4.49198 69.334 4.71398 67.305 5.64198 65.578C5.73598 65.404 5.82998 65.246 5.92998 65.093L10.652 57.804C11.077 57.094 11.604 56.46 12.224 55.914C12.372 55.773 12.53 55.638 12.693 55.511C13.008 55.264 13.339 55.046 13.689 54.853C13.594 54.396 13.547 53.926 13.552 53.452V40.405C13.552 38.597 14.043 36.818 14.972 35.261L19.635 27.49L21.284 24.19C21.602 23.556 22.013 22.987 22.51 22.493L25.509 19.493C27.075 17.93 29.149 17.073 31.352 17.073H34.863L41.981 9.354C43.654 7.54 46.032 6.5 48.504 6.5C50.544 6.5 52.537 7.21 54.115 8.5L65.813 18C66.876 18.883 67.651 19.901 68.159 21.062C68.623 22.093 68.868 23.252 68.868 24.42C68.868 24.596 68.861 24.773 68.847 24.948L69.924 25.517L76.736 24.286C77.212 24.176 77.699 24.12 78.189 24.12H81.711C82.609 24.12 83.482 24.302 84.307 24.661L90.189 27.226L90.311 27.272L90.476 27.354C92.725 28.398 94.368 30.365 94.993 32.77C95.628 35.217 95.123 37.78 93.607 39.803L92.504 41.186L87.165 50.533L89.353 56C89.649 56.741 89.856 57.517 89.969 58.306L91.594 69.673C91.827 71.376 91.55 73.053 90.795 74.553L89.649 76.844C88.56 79.008 86.602 80.577 84.271 81.163L72.197 84.181L61.687 91.898C60.526 92.728 59.296 93.223 57.982 93.408C57.589 93.472 57.186 93.504 56.781 93.504Z" fill="#F2F2F2"/>
<path d="M87.7 35.677L87.066 37.58C87.048 37.633 87.013 37.703 86.978 37.756L80.125 49.753C80.037 49.912 79.984 50.088 80.002 50.281L81.27 69.835C81.288 70.152 81.129 70.469 80.865 70.663L69.784 77.939C69.555 78.098 69.255 78.133 68.991 78.045L62.843 75.949C62.544 75.843 62.226 75.914 61.98 76.108L55.55 81.199C55.391 81.322 55.215 81.375 55.039 81.393L29.143 83.454C29.073 83.454 29.02 83.454 28.949 83.436C28.879 83.436 28.79 83.418 28.72 83.383L26.06 82.062C25.831 81.956 25.62 81.833 25.426 81.674C25.408 81.692 25.408 81.674 25.408 81.674C25.214 81.533 25.038 81.375 24.862 81.198L18.502 74.838C18.308 74.679 18.132 74.521 17.956 74.38L11.614 69.87C11.438 69.747 11.332 69.571 11.279 69.377C11.209 69.148 11.244 68.884 11.367 68.655L16.194 61.203C16.317 60.974 16.493 60.78 16.722 60.639C16.881 60.516 17.074 60.445 17.268 60.392L28.86 57.926C29.477 57.767 28.332 56.693 27.979 56.164L20.245 53.751C20.139 53.61 20.086 53.416 20.086 53.24V40.398C20.086 39.764 20.262 39.147 20.597 38.583L25.353 30.656C25.371 30.638 25.371 30.603 25.388 30.586L27.062 27.239C27.115 27.151 27.168 27.063 27.238 26.992L29.88 24.35C30.373 23.857 31.06 23.575 31.765 23.575H37.297C37.561 23.575 37.808 23.469 37.984 23.276L46.757 13.763C47.603 12.847 49.03 12.741 49.998 13.534L61.713 23.047C61.924 23.223 62.101 23.435 62.206 23.681C62.312 23.91 62.365 24.157 62.365 24.421L60.568 29.741C60.568 30.076 62.013 32.243 62.33 32.383H68.485L78.132 30.639C78.185 30.621 78.255 30.621 78.308 30.621H81.444C81.638 30.621 81.832 30.674 81.99 30.797L87.345 34.62C87.682 34.866 87.823 35.289 87.7 35.677Z" fill="#70BFFF"/>
<path d="M76.108 67.21L69.378 78.185L57.84 86.659C57.593 86.835 57.329 86.941 57.047 86.976C56.748 87.029 56.448 86.994 56.166 86.87L49.116 83.847C48.542 83.6 47.911 83.511 47.291 83.59L34.938 85.133C34.417 85.198 33.886 85.145 33.386 84.98L28.86 83.47L34.145 78.185L35.907 71.582L44.796 64.831L72.902 59.863L76.108 67.21Z" fill="#2B59A1"/>
<path d="M62.332 24.42V28.859L50 34.144L42.953 35.906L39.43 39.429L35.907 41.191L30.828 44.577C30.691 44.669 30.543 44.739 30.386 44.79L25.649 46.298C25.286 46.413 24.971 46.643 24.751 46.952L20.053 53.523V40.405C20.053 39.767 20.227 39.14 20.555 38.592L25.338 30.62L27.1 27.097H33.897C34.064 27.097 34.23 27.109 34.396 27.132L46.479 28.858L56.304 27.221C56.796 27.138 57.264 26.953 57.68 26.677L62.176 23.679C62.279 23.909 62.332 24.155 62.332 24.42Z" fill="#2785BD"/>
<path d="M48.468 69.377L38.109 76.16C37.845 76.336 37.633 76.565 37.492 76.847L36.206 79.419C36.03 79.771 35.766 80.036 35.413 80.212L28.948 83.436L28.895 83.471L28.719 83.383L26.059 82.062L25.883 81.974C25.724 81.886 25.566 81.798 25.425 81.675C25.407 81.693 25.407 81.675 25.407 81.675C25.248 81.569 25.09 81.428 24.967 81.305L24.861 81.199L18.501 74.839C18.378 74.716 18.254 74.61 18.131 74.504L17.955 74.381L11.613 69.871C11.437 69.748 11.331 69.572 11.278 69.378H20.668C21.443 69.378 22.183 69.131 22.782 68.673L28.895 64.093H37.703L42.988 62.331L48.468 69.377Z" fill="#2785BD"/>
<path d="M33.95 35.661L27.099 27.098L39.119 32.249C39.325 32.337 39.512 32.464 39.67 32.622L42.954 35.906L39.431 39.429L35.908 41.191L34.245 36.204C34.179 36.006 34.078 35.823 33.95 35.661Z" fill="#D9EEFF"/>
<path d="M76.103 67.217L69.379 78.185L82.687 74.859C83.186 74.734 83.605 74.397 83.836 73.938L84.99 71.632C85.15 71.311 85.208 70.95 85.159 70.594L83.535 59.226C83.494 58.948 83.422 58.676 83.318 58.416L79.95 49.999L76.103 67.217Z" fill="#2785BD"/>
<path d="M81.71 30.621L87.71 33.239C88.744 33.699 89.082 35.001 88.404 35.906L84 42L81.71 30.621Z" fill="#D9EEFF"/>
<path d="M61.763 78.1861C61.042 78.1861 60.396 78.6251 60.128 79.2921L57.047 86.9761C57.329 86.9411 57.593 86.8351 57.84 86.6591L69.379 78.1851L61.763 78.1861Z" fill="#2785BD"/>
<path d="M79.949 49.999L72.902 59.864L76.103 67.217L79.949 49.999Z" fill="#D9EEFF"/>
<path d="M51.762 54.403L62.987 71.583L69.378 64.092L51.762 48.237L35.907 46.475L27.49 48.16C27.233 48.211 26.99 48.32 26.778 48.479L20.052 53.523L23.279 58.364C23.473 58.653 23.575 58.993 23.575 59.342V64.093H28.86L39.43 57.046L41.192 53.523L44.627 51.763L51.762 54.403Z" fill="#2785BD"/>
<path d="M35.907 41.191V46.476L51.762 48.237L35.907 41.191Z" fill="#70BFFF"/>
<path d="M17.233 60.393C17.039 60.446 16.845 60.516 16.687 60.64L23.575 64.093V58.808L17.233 60.393Z" fill="#70BFFF"/>
<path d="M81.71 30.621H78.187L76.746 35.312C76.577 35.821 75.996 36.061 75.516 35.821L62.332 28.859L58.809 39.429L51.762 48.237L69.379 64.092L71.141 62.33L79.949 49.998L84 43L81.71 30.621Z" fill="#70BFFF"/>
<path d="M37.669 23.574L34.145 27.097L46.477 28.859L37.669 23.574Z" fill="#70BFFF"/>
<path d="M51.762 54.403L46.477 55.284L42.954 62.331L54.088 77.446C54.722 78.309 55.955 78.415 56.73 77.675L62.984 71.58L51.762 54.403Z" fill="#70BFFF"/>
<path d="M34.145 27.097H27.098L30.105 24.09C30.436 23.759 30.884 23.574 31.35 23.574H37.667L34.145 27.097ZM50.259 34.033C50.086 34.107 49.908 34.167 49.725 34.213L42.953 35.906L58.808 39.429L62.331 28.859L50.259 34.033Z" fill="#D9EEFF"/>
<path d="M42.954 44.323V35.906L39.633 39.227C39.499 39.361 39.344 39.472 39.175 39.556L35.907 41.191L51.762 48.238L58.809 39.43L54.243 41.903C53.767 42.16 53.255 42.343 52.723 42.446L42.954 44.323ZM49.107 51.762H45.052C44.772 51.762 44.497 51.829 44.249 51.956L41.707 53.258C41.372 53.429 41.103 53.702 40.935 54.038L39.64 56.626C39.503 56.901 39.296 57.133 39.041 57.304L28.86 64.092H37.096C37.475 64.092 37.852 64.03 38.209 63.911L42.953 62.331L46.075 56.086C46.327 55.582 46.804 55.228 47.361 55.136L51.762 54.403L50.59 52.574C50.266 52.069 49.708 51.762 49.107 51.762Z" fill="#D9EEFF"/>
<path d="M20.053 53.521V40.404C20.053 39.766 20.227 39.139 20.555 38.591L25.338 30.619L27.1 27.096L30.107 24.089C30.438 23.758 30.885 23.573 31.352 23.573H37.299C37.563 23.573 37.81 23.468 37.986 23.274L46.759 13.761C47.604 12.845 49.031 12.739 50 13.532L61.716 23.045C61.927 23.221 62.103 23.432 62.209 23.679C62.314 23.908 62.367 24.155 62.367 24.419L62.332 24.523V28.858L68.872 32.312L78.134 30.638C78.149 30.633 78.166 30.636 78.183 30.633L78.187 30.62H81.71L87.71 33.238C88.745 33.698 89.083 35 88.406 35.905L87.067 37.579C87.049 37.632 87.014 37.702 86.979 37.755L80.126 49.752C80.058 49.875 80.023 50.012 80.013 50.156L83.318 58.416C83.422 58.676 83.494 58.948 83.535 59.226L85.159 70.594C85.208 70.95 85.15 71.311 84.99 71.632L83.836 73.938C83.605 74.397 83.186 74.734 82.687 74.859L69.379 78.185L57.84 86.659C57.593 86.835 57.329 86.941 57.047 86.976C56.747 87.029 56.448 86.993 56.166 86.87L49.116 83.847C48.542 83.601 47.911 83.511 47.291 83.59L34.938 85.133C34.417 85.198 33.886 85.146 33.386 84.98L28.86 83.47L28.873 83.457L28.721 83.381L26.061 82.06L25.885 81.972C25.727 81.884 25.568 81.796 25.427 81.673C25.409 81.691 25.409 81.673 25.409 81.673C25.251 81.567 25.092 81.426 24.969 81.303L24.863 81.197L18.503 74.837C18.309 74.678 18.133 74.52 17.957 74.379L11.615 69.869C11.439 69.746 11.333 69.57 11.28 69.376C11.21 69.147 11.245 68.883 11.368 68.654L16.195 61.202C16.316 60.978 16.488 60.789 16.71 60.649L16.688 60.638C16.846 60.514 17.04 60.444 17.234 60.391L23.499 58.825C23.449 58.662 23.376 58.505 23.28 58.362L20.053 53.521ZM20.053 53.521L20.117 53.432C20.12 53.444 20.119 53.457 20.122 53.469L20.053 53.521Z" stroke="#40396E" stroke-width="3" stroke-miterlimit="10" stroke-linecap="round" stroke-linejoin="round"/>
</svg>
