<svg xmlns="http://www.w3.org/2000/svg"  viewBox="0 0 100 100" width="100px" height="100px"><path d="M51,93.013c-1.571,0-2.787-0.558-3.971-1.591l-34.554-30.18l-0.614-0.581c-6.079-5.505-9.866-13.361-9.866-21.546 c0-16.051,13.059-29.109,29.11-29.109c7.46,0,14.544,2.864,19.881,7.868c5.337-5.003,12.421-7.868,19.882-7.868 c16.051,0,29.109,13.059,29.109,29.109c0,8.208-3.515,16.083-9.645,21.609l-0.739,0.666c-0.096,0.096-0.195,0.188-0.297,0.278 l-34.018,29.74C54.092,92.442,52.573,93.013,51,93.013z" opacity=".35"/><path fill="#f2f2f2" d="M49,91.013c-1.571,0-3.089-0.569-4.273-1.602L10.172,59.23l-0.614-0.581 c-6.079-5.505-9.564-13.351-9.564-21.536c0-16.051,13.059-29.109,29.11-29.109c7.46,0,14.544,2.864,19.881,7.868 c5.337-5.003,12.421-7.868,19.882-7.868c16.051,0,29.109,13.059,29.109,29.109c0,8.208-3.515,16.083-9.645,21.609l-0.739,0.666 c-0.096,0.096-0.195,0.188-0.297,0.278l-34.018,29.74C52.092,90.442,50.573,91.013,49,91.013z"/><path fill="#f4665c" d="M92.476,37.114c0-13.039-10.57-23.609-23.609-23.609c-8.359,0-15.686,4.356-19.882,10.91 c-4.195-6.554-11.522-10.91-19.882-10.91c-13.039,0-23.609,10.57-23.609,23.609c0,6.963,3.032,13.202,7.827,17.523l-0.031,0.02 L49,85.834l35.68-31.178l-0.031-0.02C89.444,50.316,92.476,44.077,92.476,37.114z"/><g><path fill="#40396e" d="M49,86.013c-0.352,0-0.704-0.124-0.987-0.37l-34.484-30.12c-0.016-0.014-0.031-0.028-0.047-0.043 l-0.524-0.499c-5.05-4.551-7.963-11.074-7.963-17.868c0-13.294,10.815-24.109,24.11-24.109c7.994,0,15.37,3.912,19.881,10.504 c4.512-6.592,11.888-10.504,19.882-10.504c13.294,0,24.109,10.815,24.109,24.109c0,6.794-2.913,13.316-7.992,17.895l-0.864,0.778 c-0.039,0.043-0.08,0.084-0.124,0.123L49.987,85.642C49.704,85.889,49.352,86.013,49,86.013z M15.525,53.284l33.474,29.237 l32.906-28.768c0.029-0.031,0.06-0.062,0.092-0.091l0.978-0.881c4.449-4.01,7.001-9.721,7.001-15.667 c0-11.64-9.47-21.109-21.109-21.109c-7.22,0-13.865,3.648-17.776,9.758l-0.842,1.316c-0.551,0.861-1.976,0.861-2.526,0 l-0.842-1.316c-3.911-6.11-10.556-9.758-17.776-9.758c-11.64,0-21.11,9.47-21.11,21.109c0,5.946,2.552,11.656,7.001,15.667 L15.525,53.284z"/></g></svg>